<?xml version="1.0" encoding="UTF-8" standalone="no"?>
<!-- Created with Inkscape (http://www.inkscape.org/) -->

<svg
   xmlns:dc="http://purl.org/dc/elements/1.1/"
   xmlns:cc="http://creativecommons.org/ns#"
   xmlns:rdf="http://www.w3.org/1999/02/22-rdf-syntax-ns#"
   xmlns:svg="http://www.w3.org/2000/svg"
   xmlns="http://www.w3.org/2000/svg"
   xmlns:sodipodi="http://sodipodi.sourceforge.net/DTD/sodipodi-0.dtd"
   xmlns:inkscape="http://www.inkscape.org/namespaces/inkscape"
   inkscape:version="0.92.1 r15371"
   version="1.1"
   id="svg2"
   viewBox="0 0 744.09448819 1052.3622047"
   height="297mm"
   width="210mm"
   sodipodi:docname="InertialReferenceFrame.svg">
  <sodipodi:namedview
     inkscape:window-maximized="1"
     inkscape:window-y="-8"
     inkscape:window-x="61"
     inkscape:window-height="1417"
     inkscape:window-width="2491"
     showgrid="false"
     inkscape:current-layer="svg2"
     inkscape:document-units="px"
     inkscape:cy="807.74665"
     inkscape:cx="424.07128"
     inkscape:zoom="3.959798"
     inkscape:pageshadow="2"
     inkscape:pageopacity="0.0"
     borderopacity="1.0"
     bordercolor="#666666"
     pagecolor="#ffffff"
     id="base" />
  <defs
     id="defs4">
    <marker
       inkscape:stockid="Arrow2Mstart"
       orient="auto"
       refY="0.0"
       refX="0.0"
       id="marker10018"
       style="overflow:visible"
       inkscape:isstock="true">
      <path
         id="path10016"
         style="fill-rule:evenodd;stroke-width:0.625;stroke-linejoin:round;stroke:#000000;stroke-opacity:1;fill:#000000;fill-opacity:1"
         d="M 8.7185878,4.0337352 L -2.2072895,0.016013256 L 8.7185884,-4.0017078 C 6.9730900,-1.6296469 6.9831476,1.6157441 8.7185878,4.0337352 z "
         transform="scale(0.6) translate(0,0)" />
    </marker>
    <marker
       inkscape:isstock="true"
       style="overflow:visible"
       id="marker7993"
       refX="0.0"
       refY="0.0"
       orient="auto"
       inkscape:stockid="Arrow2Mstart"
       inkscape:collect="always">
      <path
         transform="scale(0.6) translate(0,0)"
         d="M 8.7185878,4.0337352 L -2.2072895,0.016013256 L 8.7185884,-4.0017078 C 6.9730900,-1.6296469 6.9831476,1.6157441 8.7185878,4.0337352 z "
         style="fill-rule:evenodd;stroke-width:0.625;stroke-linejoin:round;stroke:#000000;stroke-opacity:1;fill:#000000;fill-opacity:1"
         id="path7991" />
    </marker>
    <marker
       inkscape:collect="always"
       inkscape:stockid="Arrow2Mstart"
       orient="auto"
       refY="0.0"
       refX="0.0"
       id="Arrow2Mstart"
       style="overflow:visible"
       inkscape:isstock="true">
      <path
         id="path4447"
         style="fill-rule:evenodd;stroke-width:0.625;stroke-linejoin:round;stroke:#000000;stroke-opacity:1;fill:#000000;fill-opacity:1"
         d="M 8.7185878,4.0337352 L -2.2072895,0.016013256 L 8.7185884,-4.0017078 C 6.9730900,-1.6296469 6.9831476,1.6157441 8.7185878,4.0337352 z "
         transform="scale(0.6) translate(0,0)" />
    </marker>
    <marker
       inkscape:stockid="Arrow2Mend"
       orient="auto"
       refY="0.0"
       refX="0.0"
       id="marker6923"
       style="overflow:visible;"
       inkscape:isstock="true">
      <path
         id="path6925"
         style="fill-rule:evenodd;stroke-width:0.625;stroke-linejoin:round;stroke:#000000;stroke-opacity:1;fill:#000000;fill-opacity:1"
         d="M 8.7185878,4.0337352 L -2.2072895,0.016013256 L 8.7185884,-4.0017078 C 6.9730900,-1.6296469 6.9831476,1.6157441 8.7185878,4.0337352 z "
         transform="scale(0.6) rotate(180) translate(0,0)" />
    </marker>
    <marker
       inkscape:isstock="true"
       style="overflow:visible;"
       id="marker5944"
       refX="0.0"
       refY="0.0"
       orient="auto"
       inkscape:stockid="Arrow2Mend">
      <path
         transform="scale(0.6) rotate(180) translate(0,0)"
         d="M 8.7185878,4.0337352 L -2.2072895,0.016013256 L 8.7185884,-4.0017078 C 6.9730900,-1.6296469 6.9831476,1.6157441 8.7185878,4.0337352 z "
         style="fill-rule:evenodd;stroke-width:0.625;stroke-linejoin:round;stroke:#000000;stroke-opacity:1;fill:#000000;fill-opacity:1"
         id="path5946" />
    </marker>
    <marker
       inkscape:collect="always"
       inkscape:isstock="true"
       style="overflow:visible;"
       id="marker5934"
       refX="0.0"
       refY="0.0"
       orient="auto"
       inkscape:stockid="Arrow2Mend">
      <path
         transform="scale(0.6) rotate(180) translate(0,0)"
         d="M 8.7185878,4.0337352 L -2.2072895,0.016013256 L 8.7185884,-4.0017078 C 6.9730900,-1.6296469 6.9831476,1.6157441 8.7185878,4.0337352 z "
         style="fill-rule:evenodd;stroke-width:0.625;stroke-linejoin:round;stroke:#000000;stroke-opacity:1;fill:#000000;fill-opacity:1"
         id="path5936" />
    </marker>
    <marker
       inkscape:stockid="TriangleInM"
       orient="auto"
       refY="0.0"
       refX="0.0"
       id="TriangleInM"
       style="overflow:visible"
       inkscape:isstock="true"
       inkscape:collect="always">
      <path
         id="path4707"
         d="M 5.77,0.0 L -2.88,5.0 L -2.88,-5.0 L 5.77,0.0 z "
         style="fill-rule:evenodd;stroke:#000000;stroke-width:1pt;stroke-opacity:1;fill:#000000;fill-opacity:1"
         transform="scale(-0.4)" />
    </marker>
  </defs>
  <metadata
     id="metadata7">
    <rdf:RDF>
      <cc:Work
         rdf:about="">
        <dc:format>image/svg+xml</dc:format>
        <dc:type
           rdf:resource="http://purl.org/dc/dcmitype/StillImage" />
        <dc:title />
      </cc:Work>
    </rdf:RDF>
  </metadata>
  <g
     inkscape:label="Laag 1"
     inkscape:groupmode="layer"
     id="layer1">
    <path
       style="opacity:1;fill:none;fill-opacity:1;fill-rule:evenodd;stroke:#000000;stroke-width:0.5;stroke-miterlimit:4;stroke-dasharray:none;stroke-dashoffset:0;stroke-opacity:1"
       id="path11931"
       r="0"
       cy="0"
       cx="0" />
  </g>
  <path
     style="fill:none;fill-rule:evenodd;stroke:#000000;stroke-width:1;stroke-linecap:butt;stroke-linejoin:miter;stroke-miterlimit:4;stroke-dasharray:none;stroke-opacity:1"
     d="m 414.24172,278.05353 66.18834,-45.72569 28.50093,41.25534 -65.31051,45.11924 -28.54802,8.98298 -18.45655,-26.71601 z"
     id="path5392"
     inkscape:connector-curvature="0" />
  <g
     id="g5847"
     transform="matrix(1.0939489,-0.75574591,0.75574591,1.0939489,-232.66688,335.83269)">
    <rect
       y="241.24451"
       x="446.26968"
       height="10.031947"
       width="23.163927"
       id="rect5076-23"
       style="opacity:1;fill:#e6e6e6;fill-opacity:1;fill-rule:evenodd;stroke:#4d4d4d;stroke-width:0.8068884;stroke-miterlimit:4;stroke-dasharray:none;stroke-dashoffset:0;stroke-opacity:1" />
    <rect
       y="268.51862"
       x="446.26968"
       height="10.031947"
       width="23.163927"
       id="rect5076-23-6"
       style="opacity:1;fill:#e6e6e6;fill-opacity:1;fill-rule:evenodd;stroke:#4d4d4d;stroke-width:0.8068884;stroke-miterlimit:4;stroke-dasharray:none;stroke-dashoffset:0;stroke-opacity:1" />
  </g>
  <path
     style="font-style:normal;font-variant:normal;font-weight:normal;font-stretch:normal;letter-spacing:normal;word-spacing:normal;text-anchor:start;fill:#000000;fill-opacity:1;fill-rule:evenodd;stroke:#000000;stroke-width:0;stroke-linecap:butt;stroke-linejoin:miter;stroke-miterlimit:10.43299961;stroke-dasharray:none;stroke-dashoffset:0;stroke-opacity:1"
     inkscape:connector-curvature="0"
     d="m 560.59352,197.06386 v -0.0266 -0.0398 -0.0266 -0.0398 l -0.0133,-0.0266 v -0.0266 -0.0266 -0.0266 l -0.0132,-0.0532 -0.0132,-0.0532 v -0.0532 l -0.0132,-0.0532 -0.0132,-0.0398 -0.0266,-0.04 -0.0132,-0.0398 -0.0132,-0.0398 -0.0266,-0.0266 -0.0132,-0.04 -0.0266,-0.0266 -0.0132,-0.0266 -0.0266,-0.0266 -0.0266,-0.0266 -0.0132,-0.0132 -0.0266,-0.0266 -0.0266,-0.0132 -0.0266,-0.0132 -0.0266,-0.0132 -0.0266,-0.0132 -0.0132,-0.0132 -0.0266,-0.0132 h -0.0266 l -0.0266,-0.0132 h -0.0266 -0.0266 l -0.0132,-0.0132 h -0.0266 c -0.3324,0 -0.65151,0.34569 -0.65151,0.6382 0,0.17286 0.0665,0.25263 0.21273,0.39889 0.27922,0.26592 0.45208,0.61162 0.45208,1.07699 0,0.55844 -0.81107,3.58996 -2.35343,3.58996 -0.67809,0 -0.9839,-0.46536 -0.9839,-1.15676 0,-0.74458 0.35899,-1.70191 0.77117,-2.7922 0.093,-0.22602 0.14626,-0.41218 0.14626,-0.66481 0,-0.59832 -0.41218,-1.09027 -1.07699,-1.09027 -1.24983,0 -1.75509,1.91464 -1.75509,2.03431 0,0.13296 0.13296,0.13296 0.15955,0.13296 0.13296,0 0.14627,-0.0266 0.21274,-0.23933 0.38559,-1.32962 0.95732,-1.63543 1.34292,-1.63543 0.10635,0 0.33239,0 0.33239,0.42548 0,0.3324 -0.13295,0.6914 -0.22603,0.93072 -0.58504,1.52906 -0.75788,2.14069 -0.75788,2.69913 0,1.43599 1.17006,1.63543 1.76839,1.63543 2.23375,0 2.99164,-4.36114 2.99164,-5.05255 z"
     id="path8275" />
  <path
     transform="rotate(-34.638348)"
     style="opacity:1;fill:none;fill-opacity:1;fill-rule:evenodd;stroke:#000000;stroke-width:1.31200004;stroke-miterlimit:4;stroke-dasharray:none;stroke-dashoffset:0;stroke-opacity:1;marker-start:url(#TriangleInM)"
     id="path10252"
     sodipodi:type="arc"
     sodipodi:cx="228.91142"
     sodipodi:cy="487.47305"
     sodipodi:rx="45.632179"
     sodipodi:ry="45.81292"
     sodipodi:start="0.91300377"
     sodipodi:end="0.0065706429"
     d="m 256.80964,523.72682 a 45.632179,45.81292 0 0 1 -56.81775,-0.81585 45.632179,45.81292 0 0 1 -11.97361,-55.76774 45.632179,45.81292 0 0 1 51.43744,-24.24325 45.632179,45.81292 0 0 1 35.0869,44.87409"
     sodipodi:open="true" />
  <path
     id="path10431"
     d="m 517.86066,302.28453 v -0.0532 -0.0532 -0.0532 -0.0532 l -0.0132,-0.0399 v -0.0532 l -0.0132,-0.0398 -0.0133,-0.0532 v -0.0398 l -0.0132,-0.0398 -0.0132,-0.0398 -0.0132,-0.0398 -0.0132,-0.0266 -0.0266,-0.0398 -0.0132,-0.0266 -0.0132,-0.0398 -0.0266,-0.0266 -0.0132,-0.0266 -0.0266,-0.0266 -0.0132,-0.0132 -0.0266,-0.0266 -0.0132,-0.0132 -0.0266,-0.0266 -0.0266,-0.0133 -0.0266,-0.0132 -0.0266,-0.0132 -0.0132,-0.0132 h -0.0266 l -0.0266,-0.0133 h -0.0266 l -0.0266,-0.0132 h -0.0266 c -0.34569,0 -0.70469,0.31912 -0.70469,0.62493 0,0.13296 0.0665,0.27923 0.19945,0.39889 0.22603,0.19943 0.46536,0.55843 0.46536,1.10357 0,0.53185 -0.25263,1.28973 -0.66481,1.88806 -0.39888,0.57173 -0.89083,1.0238 -1.51575,1.0238 -0.75789,0 -1.17007,-0.47866 -1.28974,-1.19665 0.14625,-0.33241 0.45207,-1.18336 0.45207,-1.55566 0,-0.15955 -0.0665,-0.29251 -0.23932,-0.29251 -0.10636,0 -0.25263,0.0266 -0.35901,0.22604 -0.14625,0.26591 -0.29251,1.13017 -0.29251,1.59553 -0.45207,0.62492 -0.97062,1.22325 -1.80827,1.22325 -0.87755,0 -1.15676,-0.78448 -1.15676,-1.51576 0,-1.64873 1.3562,-3.04482 1.3562,-3.21767 0,-0.14626 -0.10636,-0.25263 -0.25263,-0.25263 -0.17285,0 -0.26592,0.17286 -0.34569,0.29252 -0.67811,0.98391 -1.18337,2.55286 -1.18337,3.74952 0,0.91743 0.30582,1.88804 1.39609,1.88804 0.94404,0 1.55566,-0.6515 2.03432,-1.38278 0.11967,0.77116 0.63822,1.38278 1.46257,1.38278 1.03711,0 1.67532,-0.79777 2.15398,-1.79497 0.31912,-0.63822 0.81107,-2.4332 0.81107,-3.25756 z"
     inkscape:connector-curvature="0"
     style="font-style:normal;font-variant:normal;font-weight:normal;font-stretch:normal;letter-spacing:normal;word-spacing:normal;text-anchor:start;fill:#000000;fill-opacity:1;fill-rule:evenodd;stroke:#000000;stroke-width:0;stroke-linecap:butt;stroke-linejoin:miter;stroke-miterlimit:10.43299961;stroke-dasharray:none;stroke-dashoffset:0;stroke-opacity:1" />
  <path
     style="fill:none;fill-rule:evenodd;stroke:#000000;stroke-width:1;stroke-linecap:butt;stroke-linejoin:miter;stroke-miterlimit:4;stroke-dasharray:none;stroke-opacity:1;marker-end:url(#marker5934)"
     d="M 463.4254,274.42406 564.92756,204.30209"
     id="path4686-0-47"
     inkscape:connector-curvature="0" />
  <g
     transform="translate(11.71875,-0.16740816)"
     id="g5924">
    <path
       style="font-style:normal;font-variant:normal;font-weight:normal;font-stretch:normal;letter-spacing:normal;word-spacing:normal;text-anchor:start;fill:#000000;fill-opacity:1;fill-rule:evenodd;stroke:#000000;stroke-width:0;stroke-linecap:butt;stroke-linejoin:miter;stroke-miterlimit:10.43299961;stroke-dasharray:none;stroke-dashoffset:0;stroke-opacity:1"
       inkscape:connector-curvature="0"
       d="m 477.98867,264.19896 0.01,-0.02 0.01,-0.03 v -0.03 l 0.01,-0.04 0.01,-0.04 0.02,-0.04 0.01,-0.04 0.01,-0.05 0.02,-0.04 0.02,-0.05 0.02,-0.05 0.02,-0.05 0.02,-0.05 0.02,-0.05 0.03,-0.05 0.03,-0.05 0.03,-0.05 0.03,-0.04 0.03,-0.05 0.04,-0.04 0.03,-0.05 0.04,-0.04 0.05,-0.04 0.04,-0.03 0.05,-0.03 0.04,-0.03 0.03,-0.01 0.03,-0.02 0.02,-0.01 0.03,-0.01 0.03,-0.01 h 0.03 l 0.02,-0.01 0.03,-0.01 h 0.03 0.04 l 0.03,-0.01 h 0.03 c 0.05,0 0.29,0 0.5,0.13 -0.28,0.05 -0.48,0.3 -0.48,0.54 0,0.16 0.11,0.35 0.38,0.35 0.22,0 0.54,-0.18 0.54,-0.58 0,-0.52 -0.59,-0.66 -0.93,-0.66 -0.58,0 -0.93,0.53 -1.05,0.76 -0.25,-0.66 -0.78,-0.76 -1.07,-0.76 -1.04,0 -1.61,1.29 -1.61,1.53 0,0.1 0.1,0.1 0.12,0.1 0.08,0 0.11,-0.02 0.13,-0.11 0.34,-1.05 1,-1.3 1.34,-1.3 0.19,0 0.53,0.09 0.53,0.67 0,0.31 -0.17,0.97 -0.53,2.36 -0.16,0.62 -0.51,1.04 -0.95,1.04 -0.06,0 -0.29,0 -0.5,-0.13 0.25,-0.05 0.47,-0.26 0.47,-0.54 0,-0.27 -0.22,-0.35 -0.37,-0.35 -0.3,0 -0.55,0.26 -0.55,0.58 0,0.46 0.5,0.65 0.94,0.65 0.66,0 1.02,-0.69 1.05,-0.75 0.11,0.37 0.47,0.75 1.07,0.75 1.03,0 1.6,-1.28 1.6,-1.53 0,-0.1 -0.09,-0.1 -0.12,-0.1 -0.09,0 -0.11,0.05 -0.13,0.11 -0.33,1.07 -1.01,1.31 -1.33,1.31 -0.39,0 -0.55,-0.32 -0.55,-0.66 0,-0.22 0.06,-0.44 0.17,-0.87 z"
       id="path8037" />
    <path
       style="font-style:normal;font-variant:normal;font-weight:normal;font-stretch:normal;letter-spacing:normal;word-spacing:normal;text-anchor:start;fill:#000000;fill-opacity:1;fill-rule:evenodd;stroke:#000000;stroke-width:0;stroke-linecap:butt;stroke-linejoin:miter;stroke-miterlimit:10.43299961;stroke-dasharray:none;stroke-dashoffset:0;stroke-opacity:1"
       inkscape:connector-curvature="0"
       d="m 484.50867,266.33896 0.08,-0.02 0.07,-0.03 0.08,-0.02 0.08,-0.02 0.07,-0.03 0.07,-0.03 0.08,-0.02 0.07,-0.04 0.06,-0.03 0.07,-0.03 0.07,-0.04 0.06,-0.03 0.06,-0.04 0.06,-0.04 0.06,-0.04 0.06,-0.04 0.05,-0.05 0.05,-0.04 0.05,-0.05 0.04,-0.04 0.05,-0.05 0.03,-0.05 0.04,-0.05 0.03,-0.05 0.03,-0.05 0.03,-0.06 0.02,-0.05 0.02,-0.05 0.01,-0.06 0.01,-0.06 0.01,-0.05 v -0.06 c 0,-0.6 -0.71,-1.07 -1.73,-1.07 h -2.14 c -0.13,0 -0.22,0 -0.22,0.15 0,0.1 0.08,0.1 0.22,0.1 0.01,0 0.14,0 0.26,0.01 0.15,0.02 0.16,0.03 0.16,0.1 0,0.01 0,0.05 -0.02,0.15 l -0.93,3.7 c -0.06,0.23 -0.07,0.29 -0.62,0.29 -0.12,0 -0.21,0 -0.21,0.15 0,0.06 0.05,0.1 0.11,0.1 0.14,0 0.3,-0.02 0.44,-0.02 0.13,0 0.33,-0.01 0.46,-0.01 0.14,0 0.3,0.01 0.45,0.01 0.14,0 0.32,0.02 0.46,0.02 0.04,0 0.15,0 0.15,-0.15 0,-0.1 -0.07,-0.1 -0.23,-0.1 -0.11,0 -0.14,0 -0.26,-0.02 -0.16,-0.02 -0.16,-0.03 -0.16,-0.1 0,-0.01 0,-0.05 0.03,-0.15 l 0.44,-1.76 h 0.95 l 0.01,-0.2 h -0.9 l 0.44,-1.78 c 0.05,-0.2 0.07,-0.22 0.22,-0.24 h 0.45 c 0.65,0 1.45,0 1.45,0.72 0,0.28 -0.13,0.72 -0.46,0.97 -0.29,0.22 -0.72,0.33 -1.2,0.33 l -0.01,0.2 c 0.6,0 0.86,0.3 0.86,0.62 0,0.09 -0.06,0.33 -0.1,0.49 -0.08,0.32 -0.11,0.42 -0.11,0.54 0,0.55 0.51,0.77 1.03,0.77 0.64,0 0.92,-0.68 0.92,-0.81 0,-0.02 -0.01,-0.1 -0.12,-0.1 -0.09,0 -0.1,0.05 -0.12,0.12 -0.1,0.31 -0.36,0.59 -0.65,0.59 -0.19,0 -0.32,-0.07 -0.32,-0.45 0,-0.17 0.04,-0.53 0.07,-0.72 0.03,-0.19 0.03,-0.26 0.03,-0.33 0,-0.08 0,-0.3 -0.19,-0.51 -0.14,-0.15 -0.33,-0.24 -0.48,-0.29 z"
       id="path8039" />
  </g>
  <g
     transform="translate(4.4797403,18.304676)"
     id="g5920">
    <path
       id="path8655"
       d="m 440.60124,259.483 v -0.05 l 0.0125,-0.05 v -0.05 l 0.0125,-0.05 0.0125,-0.05 0.0125,-0.0625 0.0125,-0.05 0.0125,-0.05 0.025,-0.0625 0.025,-0.05 0.025,-0.0625 0.025,-0.05 0.0375,-0.05 0.0375,-0.05 0.0375,-0.0625 0.05,-0.05 0.05,-0.05 0.05,-0.05 0.0625,-0.05 0.0625,-0.0375 0.0625,-0.05 0.075,-0.0375 0.075,-0.0375 0.075,-0.0375 0.0875,-0.0375 0.0875,-0.025 0.1,-0.0375 0.1,-0.025 h 0.05 l 0.0625,-0.0125 0.05,-0.0125 0.0625,-0.0125 h 0.05 l 0.0625,-0.0125 h 0.0625 l 0.0625,-0.0125 c 0.0625,-0.0125 0.1125,-0.0625 0.1125,-0.1375 0,-0.1375 -0.1,-0.1375 -0.2375,-0.1375 -1.25,0 -2.375,0.6375 -2.3875,1.5625 v 2.825 c 0,0.4875 0,0.8875 -0.5,1.2875 -0.4375,0.3625 -0.9125,0.3875 -1.1875,0.4 -0.0625,0.0125 -0.1125,0.0625 -0.1125,0.1375 0,0.125 0.075,0.125 0.2,0.1375 0.825,0.05 1.425,0.5 1.5625,1.1125 0.0375,0.125 0.0375,0.15 0.0375,0.6 v 2.4625 c 0,0.525 0,0.9125 0.6,1.3875 0.475,0.375 1.3,0.5125 1.7875,0.5125 0.1375,0 0.2375,0 0.2375,-0.1375 0,-0.125 -0.075,-0.125 -0.2,-0.1375 -0.7875,-0.05 -1.4,-0.45 -1.5625,-1.075 -0.0375,-0.1125 -0.0375,-0.1375 -0.0375,-0.5875 v -2.6125 c 0,-0.5625 -0.1,-0.775 -0.5,-1.175 -0.25,-0.2625 -0.6125,-0.3875 -0.9625,-0.4875 1.025,-0.2875 1.4625,-0.85 1.4625,-1.575 z"
       inkscape:connector-curvature="0"
       style="font-style:normal;font-variant:normal;font-weight:normal;font-stretch:normal;letter-spacing:normal;word-spacing:normal;text-anchor:start;fill:#000000;fill-opacity:1;fill-rule:evenodd;stroke:#000000;stroke-width:0;stroke-linecap:butt;stroke-linejoin:miter;stroke-miterlimit:10.43299961;stroke-dasharray:none;stroke-dashoffset:0;stroke-opacity:1" />
    <path
       id="path8657"
       d="m 449.77624,262.9205 0.1125,-0.025 0.125,-0.0375 0.125,-0.0375 0.1125,-0.0375 0.125,-0.0375 0.125,-0.0375 0.1125,-0.05 0.125,-0.05 0.1125,-0.0625 0.1125,-0.05 0.125,-0.0625 0.1125,-0.0625 0.1,-0.0625 0.1125,-0.075 0.1,-0.075 0.1,-0.075 0.1,-0.075 0.1,-0.075 0.0875,-0.0875 0.075,-0.0875 0.0875,-0.0875 0.075,-0.0875 0.0625,-0.1 0.0625,-0.1 0.0625,-0.1 0.05,-0.1 0.0375,-0.1 0.0375,-0.1125 0.025,-0.1125 0.025,-0.1125 0.0125,-0.1125 v -0.1125 c 0,-1.0625 -1.1125,-1.8625 -2.75,-1.8625 h -3.55 c -0.25,0 -0.3625,0 -0.3625,0.25 0,0.1375 0.1125,0.1375 0.35,0.1375 0.025,0 0.2625,0 0.475,0.025 0.225,0.025 0.3375,0.0375 0.3375,0.2 0,0.05 -0.0125,0.0875 -0.05,0.2375 l -1.675,6.6625 c -0.125,0.4875 -0.15,0.5875 -1.1375,0.5875 -0.225,0 -0.3375,0 -0.3375,0.25 0,0.125 0.15,0.125 0.175,0.125 0.35,0 1.225,-0.0375 1.575,-0.0375 0.35,0 1.2375,0.0375 1.575,0.0375 0.1125,0 0.25,0 0.25,-0.2375 0,-0.1375 -0.1,-0.1375 -0.3375,-0.1375 -0.4625,0 -0.8125,0 -0.8125,-0.225 0,-0.075 0.025,-0.1375 0.0375,-0.2125 l 0.825,-3.2875 h 1.475 l -0.0125,-0.275 h -1.3875 l 0.8,-3.2375 c 0.075,-0.3 0.1125,-0.425 0.35,-0.4625 0.1125,-0.0125 0.5125,-0.0125 0.7625,-0.0125 0.8875,0 2.275,0 2.275,1.225 0,0.425 -0.2,1.2875 -0.6875,1.7625 -0.325,0.325 -0.9875,0.725 -2.1125,0.725 l 0.0125,0.275 c 1.1375,0 1.3625,0.6875 1.3625,1.125 0,0.1875 -0.1,0.575 -0.175,0.8625 -0.0875,0.3375 -0.2,0.8 -0.2,1.05 0,1.3375 1.5,1.3375 1.6625,1.3375 1.05,0 1.4875,-1.25 1.4875,-1.425 0,-0.15 -0.1375,-0.15 -0.15,-0.15 -0.1125,0 -0.1375,0.0875 -0.1625,0.175 -0.3125,0.925 -0.8375,1.125 -1.125,1.125 -0.4125,0 -0.5,-0.2625 -0.5,-0.75 0,-0.3875 0.075,-1.025 0.125,-1.4125 0.025,-0.175 0.05,-0.4125 0.05,-0.5875 0,-0.95 -0.8375,-1.3375 -1.175,-1.4625 z"
       inkscape:connector-curvature="0"
       style="font-style:normal;font-variant:normal;font-weight:normal;font-stretch:normal;letter-spacing:normal;word-spacing:normal;text-anchor:start;fill:#000000;fill-opacity:1;fill-rule:evenodd;stroke:#000000;stroke-width:0;stroke-linecap:butt;stroke-linejoin:miter;stroke-miterlimit:10.43299961;stroke-dasharray:none;stroke-dashoffset:0;stroke-opacity:1" />
    <path
       id="path8659"
       d="m 455.55124,268.5955 v 0.0375 0.05 l -0.0125,0.05 v 0.0625 l -0.0125,0.05 -0.0125,0.05 -0.0125,0.05 -0.025,0.0625 -0.025,0.05 -0.0125,0.0625 -0.0375,0.05 -0.025,0.05 -0.0375,0.0625 -0.0375,0.05 -0.0375,0.05 -0.05,0.05 -0.05,0.05 -0.05,0.05 -0.05,0.05 -0.0625,0.05 -0.075,0.0375 -0.0625,0.0375 -0.075,0.0375 -0.0875,0.0375 -0.0875,0.0375 -0.0875,0.0375 -0.1,0.025 -0.1,0.025 -0.05,0.0125 -0.05,0.0125 h -0.0625 l -0.05,0.0125 -0.0625,0.0125 h -0.0625 l -0.0625,0.0125 h -0.0625 c -0.0625,0.0125 -0.1125,0.0625 -0.1125,0.1375 0,0.1375 0.1375,0.1375 0.25,0.1375 1.2125,0 2.375,-0.6125 2.3875,-1.55 v -2.8375 c 0,-0.4875 0,-0.875 0.5,-1.2875 0.425,-0.3625 0.9,-0.3875 1.175,-0.4 0.0625,-0.0125 0.1125,-0.0625 0.1125,-0.1375 0,-0.125 -0.075,-0.125 -0.2,-0.1375 -0.825,-0.05 -1.4125,-0.4875 -1.55,-1.1 -0.0375,-0.1375 -0.0375,-0.1625 -0.0375,-0.6125 v -2.45 c 0,-0.525 0,-0.925 -0.6,-1.4 -0.5,-0.3875 -1.3625,-0.5125 -1.7875,-0.5125 -0.1125,0 -0.25,0 -0.25,0.1375 0,0.125 0.075,0.125 0.2,0.1375 0.7875,0.05 1.4,0.45 1.5625,1.0875 0.0375,0.1125 0.0375,0.1375 0.0375,0.575 v 2.6125 c 0,0.575 0.1,0.7875 0.5,1.175 0.2625,0.2625 0.625,0.3875 0.975,0.4875 -1.025,0.2875 -1.475,0.8625 -1.475,1.575 z"
       inkscape:connector-curvature="0"
       style="font-style:normal;font-variant:normal;font-weight:normal;font-stretch:normal;letter-spacing:normal;word-spacing:normal;text-anchor:start;fill:#000000;fill-opacity:1;fill-rule:evenodd;stroke:#000000;stroke-width:0;stroke-linecap:butt;stroke-linejoin:miter;stroke-miterlimit:10.43299961;stroke-dasharray:none;stroke-dashoffset:0;stroke-opacity:1" />
  </g>
  <path
     style="fill:none;fill-rule:evenodd;stroke:#000000;stroke-width:0.99999994px;stroke-linecap:butt;stroke-linejoin:miter;stroke-opacity:1;marker-start:url(#Arrow2Mstart);marker-end:url(#marker6923)"
     d="m 443.4873,244.85316 20.39218,29.51786 29.52086,-20.39425"
     id="path6452"
     inkscape:connector-curvature="0" />
  <g
     transform="translate(-17.745536,15.267853)"
     id="g5928">
    <path
       id="path8347"
       d="m 466.67539,222.42437 v -0.01 0 -0.01 h 0.01 v -0.02 -0.01 -0.01 l 0.01,-0.01 v -0.01 0 -0.01 l 0.01,-0.01 v -0.01 -0.01 0 -0.01 0 -0.01 -0.01 0 l 0.01,-0.01 v 0 -0.01 -0.01 -0.01 -0.01 -0.01 -0.01 0 -0.01 c 0,-0.18 -0.14,-0.27 -0.29,-0.27 -0.1,0 -0.26,0.06 -0.35,0.21 -0.02,0.05 -0.1,0.36 -0.14,0.54 -0.07,0.26 -0.14,0.52 -0.2,0.79 l -0.45,1.79 c -0.04,0.15 -0.47,0.85 -1.13,0.85 -0.5,0 -0.61,-0.44 -0.61,-0.81 0,-0.46 0.17,-1.07 0.51,-1.95 0.16,-0.4 0.19,-0.51 0.19,-0.71 0,-0.45 -0.31,-0.82 -0.81,-0.82 -0.95,0 -1.32,1.44 -1.32,1.53 0,0.1 0.1,0.1 0.12,0.1 0.1,0 0.11,-0.02 0.16,-0.18 0.27,-0.93 0.67,-1.23 1.01,-1.23 0.08,0 0.25,0 0.25,0.32 0,0.25 -0.1,0.51 -0.17,0.7 -0.4,1.05 -0.58,1.62 -0.58,2.08 0,0.89 0.63,1.18 1.22,1.18 0.39,0 0.72,-0.16 1,-0.44 -0.13,0.51 -0.25,1 -0.64,1.53 -0.27,0.34 -0.64,0.62 -1.1,0.62 -0.14,0 -0.59,-0.03 -0.76,-0.41 0.16,0 0.29,0 0.43,-0.12 0.1,-0.09 0.2,-0.22 0.2,-0.41 0,-0.31 -0.27,-0.35 -0.37,-0.35 -0.23,0 -0.56,0.16 -0.56,0.65 0,0.49 0.44,0.86 1.06,0.86 1.02,0 2.05,-0.9 2.33,-2.02 z"
       inkscape:connector-curvature="0"
       style="font-style:normal;font-variant:normal;font-weight:normal;font-stretch:normal;letter-spacing:normal;word-spacing:normal;text-anchor:start;fill:#000000;fill-opacity:1;fill-rule:evenodd;stroke:#000000;stroke-width:0;stroke-linecap:butt;stroke-linejoin:miter;stroke-miterlimit:10.43299961;stroke-dasharray:none;stroke-dashoffset:0;stroke-opacity:1" />
    <path
       id="path8349"
       d="m 470.86539,225.34437 0.08,-0.02 0.07,-0.03 0.08,-0.02 0.08,-0.02 0.07,-0.03 0.07,-0.03 0.08,-0.02 0.07,-0.04 0.07,-0.03 0.06,-0.03 0.07,-0.04 0.06,-0.03 0.07,-0.04 0.06,-0.04 0.05,-0.04 0.06,-0.04 0.05,-0.05 0.05,-0.04 0.05,-0.05 0.04,-0.04 0.05,-0.05 0.04,-0.05 0.03,-0.05 0.03,-0.05 0.03,-0.05 0.03,-0.06 0.02,-0.05 0.02,-0.05 0.01,-0.06 0.01,-0.06 0.01,-0.05 v -0.06 c 0,-0.6 -0.71,-1.07 -1.72,-1.07 h -2.15 c -0.13,0 -0.22,0 -0.22,0.15 0,0.1 0.08,0.1 0.22,0.1 0.01,0 0.14,0 0.27,0.01 0.14,0.02 0.16,0.03 0.16,0.1 0,0.01 0,0.05 -0.03,0.15 l -0.93,3.7 c -0.06,0.23 -0.07,0.29 -0.62,0.29 -0.12,0 -0.21,0 -0.21,0.15 0,0.06 0.05,0.1 0.12,0.1 0.13,0 0.29,-0.02 0.43,-0.02 0.13,0 0.33,-0.01 0.46,-0.01 0.14,0 0.3,0.01 0.45,0.01 0.15,0 0.32,0.02 0.47,0.02 0.03,0 0.14,0 0.14,-0.15 0,-0.1 -0.07,-0.1 -0.23,-0.1 -0.11,0 -0.14,0 -0.26,-0.02 -0.16,-0.02 -0.16,-0.03 -0.16,-0.1 0,-0.01 0,-0.05 0.03,-0.15 l 0.44,-1.76 h 0.95 l 0.01,-0.2 h -0.9 l 0.45,-1.78 c 0.04,-0.2 0.06,-0.22 0.21,-0.24 h 0.45 c 0.65,0 1.45,0 1.45,0.72 0,0.28 -0.13,0.72 -0.46,0.97 -0.29,0.22 -0.72,0.33 -1.2,0.33 l -0.01,0.2 c 0.6,0 0.86,0.3 0.86,0.62 0,0.09 -0.06,0.33 -0.1,0.49 -0.08,0.32 -0.11,0.42 -0.11,0.54 0,0.55 0.51,0.77 1.03,0.77 0.64,0 0.92,-0.68 0.92,-0.81 0,-0.02 -0.01,-0.1 -0.12,-0.1 -0.09,0 -0.1,0.05 -0.12,0.12 -0.1,0.31 -0.36,0.59 -0.65,0.59 -0.18,0 -0.32,-0.07 -0.32,-0.45 0,-0.17 0.05,-0.53 0.07,-0.72 0.03,-0.19 0.03,-0.26 0.03,-0.33 0,-0.08 0,-0.3 -0.19,-0.51 -0.14,-0.15 -0.33,-0.24 -0.48,-0.29 z"
       inkscape:connector-curvature="0"
       style="font-style:normal;font-variant:normal;font-weight:normal;font-stretch:normal;letter-spacing:normal;word-spacing:normal;text-anchor:start;fill:#000000;fill-opacity:1;fill-rule:evenodd;stroke:#000000;stroke-width:0;stroke-linecap:butt;stroke-linejoin:miter;stroke-miterlimit:10.43299961;stroke-dasharray:none;stroke-dashoffset:0;stroke-opacity:1" />
  </g>
  <g
     id="g9035"
     transform="matrix(1.150427,0,0,1.150427,-23.288393,-208.97567)"
     style="stroke-width:0.86924243">
    <path
       id="path8864"
       d="m 487.022,401.7486 v -0.07 -0.06 -0.07 l -0.01,-0.08 v -0.07 l -0.01,-0.08 -0.01,-0.08 -0.01,-0.09 -0.02,-0.08 -0.01,-0.08 -0.02,-0.09 -0.02,-0.08 -0.02,-0.09 -0.03,-0.08 -0.02,-0.08 -0.03,-0.09 -0.04,-0.07 -0.04,-0.08 -0.04,-0.08 -0.04,-0.07 -0.05,-0.06 -0.05,-0.07 -0.05,-0.06 -0.06,-0.05 -0.06,-0.05 -0.03,-0.02 -0.04,-0.03 -0.03,-0.02 -0.04,-0.01 -0.03,-0.02 -0.04,-0.02 -0.04,-0.01 -0.04,-0.01 -0.04,-0.01 -0.04,-0.01 -0.05,-0.01 h -0.04 l -0.05,-0.01 h -0.04 l -0.01,0.22 c 0.48,0 0.54,0.64 0.54,1.2 0,0.49 -0.08,1 -0.32,1.98 h -2.08 c 0.17,-0.64 0.37,-1.43 0.77,-2.14 0.27,-0.48 0.64,-1.04 1.09,-1.04 l 0.01,-0.22 c -1.39,0 -2.93,2.8 -2.93,5.08 0,0.93 0.29,2.03 1.2,2.03 v -0.21 c -0.33,0 -0.54,-0.29 -0.54,-1.22 0,-0.41 0.06,-0.99 0.32,-1.96 h 2.07 c -0.1,0.45 -0.31,1.3 -0.69,2.01 -0.35,0.68 -0.73,1.17 -1.16,1.17 v 0.21 c 1.41,0 2.92,-2.85 2.92,-5.07 z"
       inkscape:connector-curvature="0"
       style="font-style:normal;font-variant:normal;font-weight:normal;font-stretch:normal;letter-spacing:normal;word-spacing:normal;text-anchor:start;fill:#000000;fill-opacity:1;fill-rule:evenodd;stroke:#000000;stroke-width:0;stroke-linecap:butt;stroke-linejoin:miter;stroke-miterlimit:10.43299961;stroke-dasharray:none;stroke-dashoffset:0;stroke-opacity:1" />
    <path
       id="path8866"
       d="m 490.052,404.0086 0.01,-0.02 v -0.02 l 0.01,-0.02 v -0.02 l 0.01,-0.02 v -0.02 l 0.01,-0.01 0.01,-0.02 v -0.01 l 0.01,-0.01 0.01,-0.02 0.01,-0.01 0.01,-0.01 0.01,-0.01 0.01,-0.01 0.02,-0.01 0.01,-0.01 h 0.02 l 0.02,-0.01 0.02,-0.01 h 0.02 l 0.01,-0.01 h 0.01 0.01 0.02 0.01 l 0.01,-0.01 h 0.02 0.01 0.02 0.02 0.01 0.02 l 0.02,-0.01 h 0.02 0.02 0.02 0.02 0.02 0.02 0.02 0.03 0.02 c 0.18,0 0.26,0 0.26,-0.15 0,-0.06 -0.05,-0.1 -0.11,-0.1 -0.15,0 -0.32,0.02 -0.47,0.02 -0.16,0 -0.32,0.01 -0.48,0.01 0,0 -0.48,-0.01 -0.48,-0.01 -0.15,0 -0.33,-0.02 -0.48,-0.02 -0.04,0 -0.15,0 -0.15,0.15 0,0.1 0.08,0.1 0.23,0.1 0.01,0 0.15,0 0.27,0.01 0.14,0.02 0.19,0.03 0.19,0.1 0,0.04 -0.02,0.09 -0.03,0.15 l -0.93,3.69 c -0.06,0.23 -0.08,0.3 -0.6,0.3 -0.19,0 -0.26,0 -0.26,0.15 0,0.01 0,0.1 0.11,0.1 0.21,0 0.74,-0.03 0.95,-0.03 l 0.48,0.01 c 0.15,0 0.33,0.02 0.48,0.02 0.04,0 0.15,0 0.15,-0.15 0,-0.1 -0.09,-0.1 -0.23,-0.1 -0.01,0 -0.16,0 -0.3,-0.02 -0.16,-0.01 -0.16,-0.04 -0.16,-0.1 0,-0.01 0,-0.05 0.03,-0.15 z"
       inkscape:connector-curvature="0"
       style="font-style:normal;font-variant:normal;font-weight:normal;font-stretch:normal;letter-spacing:normal;word-spacing:normal;text-anchor:start;fill:#000000;fill-opacity:1;fill-rule:evenodd;stroke:#000000;stroke-width:0;stroke-linecap:butt;stroke-linejoin:miter;stroke-miterlimit:10.43299961;stroke-dasharray:none;stroke-dashoffset:0;stroke-opacity:1" />
  </g>
  <path
     inkscape:connector-curvature="0"
     id="path7959"
     d="m 367.49145,208.40033 v 145.93594 h 160.1412"
     style="fill:none;stroke:#000000;stroke-width:0.9375;stroke-linecap:butt;stroke-linejoin:miter;stroke-miterlimit:4;stroke-dasharray:none;stroke-opacity:1;marker-start:url(#marker7993);marker-end:url(#marker5944)"
     sodipodi:nodetypes="ccc" />
  <g
     id="g5120"
     transform="translate(59.662135,1.1837725)">
    <g
       transform="translate(3.8320949,-23.342016)"
       id="g9959">
      <g
         id="g9027"
         transform="matrix(1.150427,0,0,1.150427,-70.498215,-81.408709)"
         style="stroke-width:0.86924243">
        <path
           id="path8856"
           d="m 459.452,403.7086 0.01,-0.02 0.01,-0.03 v -0.03 l 0.01,-0.04 0.01,-0.04 0.02,-0.04 0.01,-0.04 0.01,-0.05 0.02,-0.04 0.02,-0.05 0.02,-0.05 0.02,-0.05 0.02,-0.05 0.02,-0.05 0.03,-0.05 0.03,-0.05 0.03,-0.05 0.03,-0.04 0.03,-0.05 0.04,-0.04 0.03,-0.05 0.04,-0.04 0.05,-0.04 0.04,-0.03 0.05,-0.03 0.04,-0.03 0.03,-0.01 0.03,-0.02 0.02,-0.01 0.03,-0.01 0.03,-0.01 h 0.03 l 0.02,-0.01 0.03,-0.01 h 0.03 0.04 l 0.03,-0.01 h 0.03 c 0.05,0 0.29,0 0.5,0.13 -0.28,0.05 -0.48,0.3 -0.48,0.54 0,0.16 0.11,0.35 0.38,0.35 0.22,0 0.54,-0.18 0.54,-0.58 0,-0.52 -0.59,-0.66 -0.93,-0.66 -0.58,0 -0.93,0.53 -1.05,0.76 -0.25,-0.66 -0.78,-0.76 -1.07,-0.76 -1.04,0 -1.61,1.29 -1.61,1.53 0,0.1 0.1,0.1 0.12,0.1 0.08,0 0.11,-0.02 0.13,-0.11 0.34,-1.05 1,-1.3 1.34,-1.3 0.19,0 0.53,0.09 0.53,0.67 0,0.31 -0.17,0.97 -0.53,2.36 -0.16,0.62 -0.51,1.04 -0.95,1.04 -0.06,0 -0.29,0 -0.5,-0.13 0.25,-0.05 0.47,-0.26 0.47,-0.54 0,-0.27 -0.22,-0.35 -0.37,-0.35 -0.3,0 -0.55,0.26 -0.55,0.58 0,0.46 0.5,0.65 0.94,0.65 0.66,0 1.02,-0.69 1.05,-0.75 0.11,0.37 0.47,0.75 1.07,0.75 1.03,0 1.6,-1.28 1.6,-1.53 0,-0.1 -0.09,-0.1 -0.12,-0.1 -0.09,0 -0.11,0.05 -0.13,0.11 -0.33,1.07 -1.01,1.31 -1.33,1.31 -0.39,0 -0.55,-0.32 -0.55,-0.66 0,-0.22 0.06,-0.44 0.17,-0.87 z"
           inkscape:connector-curvature="0"
           style="font-style:normal;font-variant:normal;font-weight:normal;font-stretch:normal;letter-spacing:normal;word-spacing:normal;text-anchor:start;fill:#000000;fill-opacity:1;fill-rule:evenodd;stroke:#000000;stroke-width:0;stroke-linecap:butt;stroke-linejoin:miter;stroke-miterlimit:10.43299961;stroke-dasharray:none;stroke-dashoffset:0;stroke-opacity:1" />
        <path
           id="path8858"
           d="m 464.702,404.0086 0.01,-0.02 0.01,-0.02 v -0.02 l 0.01,-0.02 v -0.02 l 0.01,-0.02 v -0.01 l 0.01,-0.02 0.01,-0.01 0.01,-0.01 v -0.02 l 0.01,-0.01 0.01,-0.01 0.02,-0.01 0.01,-0.01 0.01,-0.01 0.02,-0.01 h 0.01 l 0.02,-0.01 0.02,-0.01 h 0.02 l 0.01,-0.01 h 0.02 0.01 0.01 0.01 l 0.02,-0.01 h 0.01 0.02 0.01 0.02 0.02 0.01 l 0.02,-0.01 h 0.02 0.02 0.02 0.02 0.02 0.02 0.03 0.02 0.03 c 0.17,0 0.25,0 0.25,-0.15 0,-0.06 -0.05,-0.1 -0.11,-0.1 -0.14,0 -0.32,0.02 -0.47,0.02 -0.15,0 -0.32,0.01 -0.47,0.01 0,0 -0.48,-0.01 -0.48,-0.01 -0.16,0 -0.33,-0.02 -0.49,-0.02 -0.04,0 -0.14,0 -0.14,0.15 0,0.1 0.07,0.1 0.23,0.1 0,0 0.14,0 0.26,0.01 0.14,0.02 0.19,0.03 0.19,0.1 0,0.04 -0.01,0.09 -0.03,0.15 l -0.93,3.69 c -0.05,0.23 -0.07,0.3 -0.6,0.3 -0.19,0 -0.26,0 -0.26,0.15 0,0.01 0,0.1 0.11,0.1 0.22,0 0.74,-0.03 0.95,-0.03 l 0.48,0.01 c 0.16,0 0.33,0.02 0.48,0.02 0.05,0 0.15,0 0.15,-0.15 0,-0.1 -0.08,-0.1 -0.22,-0.1 -0.02,0 -0.16,0 -0.3,-0.02 -0.16,-0.01 -0.16,-0.04 -0.16,-0.1 0,-0.01 0,-0.05 0.02,-0.15 z"
           inkscape:connector-curvature="0"
           style="font-style:normal;font-variant:normal;font-weight:normal;font-stretch:normal;letter-spacing:normal;word-spacing:normal;text-anchor:start;fill:#000000;fill-opacity:1;fill-rule:evenodd;stroke:#000000;stroke-width:0;stroke-linecap:butt;stroke-linejoin:miter;stroke-miterlimit:10.43299961;stroke-dasharray:none;stroke-dashoffset:0;stroke-opacity:1" />
      </g>
    </g>
  </g>
  <g
     id="g5114"
     transform="translate(4.0248266,-59.662134)">
    <g
       id="g4857">
      <path
         style="font-style:normal;font-variant:normal;font-weight:normal;font-stretch:normal;letter-spacing:normal;word-spacing:normal;text-anchor:start;fill:#000000;fill-opacity:1;fill-rule:evenodd;stroke:#000000;stroke-width:0;stroke-linecap:butt;stroke-linejoin:miter;stroke-miterlimit:10.43299961;stroke-dasharray:none;stroke-dashoffset:0;stroke-opacity:1"
         inkscape:connector-curvature="0"
         d="m 354.40127,274.31874 0.0115,-0.0115 v 0 -0.0115 0 -0.023 l 0.0115,-0.0115 v -0.0115 -0.0115 -0.0115 h 0.0115 v -0.0115 -0.0115 -0.0115 -0.0115 h 0.0115 v -0.0115 0 -0.0115 -0.0115 0 -0.0115 0 -0.0115 -0.0115 -0.0115 -0.0115 -0.0115 -0.0115 0 -0.0115 c 0,-0.20707 -0.16106,-0.31061 -0.32212,-0.31061 -0.12655,0 -0.29911,0.069 -0.40265,0.24159 -0.023,0.0575 -0.11504,0.41415 -0.16106,0.62123 -0.0805,0.29911 -0.16106,0.59822 -0.23008,0.90883 l -0.5177,2.05927 c -0.046,0.17256 -0.5407,0.97786 -1.29998,0.97786 -0.58672,0 -0.71326,-0.50619 -0.71326,-0.93184 0,-0.5292 0.19557,-1.23096 0.58671,-2.24334 0.18407,-0.46017 0.23009,-0.58671 0.23009,-0.8168 0,-0.51769 -0.36814,-0.94335 -0.94335,-0.94335 -1.0814,0 -1.50706,1.65661 -1.50706,1.76015 0,0.11505 0.11504,0.11505 0.13805,0.11505 0.11504,0 0.12655,-0.023 0.18407,-0.20708 0.31062,-1.0699 0.77079,-1.41503 1.15043,-1.41503 0.092,0 0.2876,0 0.2876,0.36814 0,0.28761 -0.11504,0.58672 -0.19557,0.8053 -0.46017,1.20795 -0.65574,1.86369 -0.65574,2.39289 0,1.02388 0.71326,1.3575 1.39201,1.3575 0.44867,0 0.83982,-0.18407 1.16194,-0.50619 -0.14956,0.58672 -0.28761,1.15043 -0.74778,1.76016 -0.29911,0.39114 -0.73627,0.71326 -1.26547,0.71326 -0.16106,0 -0.67875,-0.0345 -0.86282,-0.47167 0.18407,0 0.32212,0 0.48318,-0.13805 0.11504,-0.10354 0.23008,-0.2531 0.23008,-0.47168 0,-0.35663 -0.29911,-0.40265 -0.42565,-0.40265 -0.2531,0 -0.63274,0.18407 -0.63274,0.74778 0,0.56371 0.50619,0.98937 1.20795,0.98937 1.18494,0 2.36988,-1.03539 2.692,-2.32387 z"
         id="path8860" />
      <path
         style="font-style:normal;font-variant:normal;font-weight:normal;font-stretch:normal;letter-spacing:normal;word-spacing:normal;text-anchor:start;fill:#000000;fill-opacity:1;fill-rule:evenodd;stroke:#000000;stroke-width:0;stroke-linecap:butt;stroke-linejoin:miter;stroke-miterlimit:10.43299961;stroke-dasharray:none;stroke-dashoffset:0;stroke-opacity:1"
         inkscape:connector-curvature="0"
         d="m 357.77202,275.5612 0.0115,-0.023 v -0.023 l 0.0115,-0.023 v -0.023 l 0.0115,-0.023 v -0.023 l 0.0115,-0.0115 0.0115,-0.023 v -0.0115 l 0.0115,-0.0115 0.0115,-0.023 0.0115,-0.0115 0.0115,-0.0115 0.0115,-0.0115 0.0115,-0.0115 0.023,-0.0115 0.0115,-0.0115 h 0.023 l 0.023,-0.0115 0.023,-0.0115 h 0.023 l 0.0115,-0.0115 h 0.0115 0.023 0.0115 0.0115 l 0.023,-0.0115 h 0.0115 0.023 0.0115 0.023 0.0115 0.023 l 0.023,-0.0115 h 0.023 0.023 0.023 0.023 0.023 0.023 0.023 0.0345 0.023 c 0.20708,0 0.29911,0 0.29911,-0.17256 0,-0.069 -0.0575,-0.11504 -0.12654,-0.11504 -0.17257,0 -0.36814,0.023 -0.54071,0.023 -0.17256,0 -0.36813,0.0115 -0.5407,0.0115 0,0 -0.56371,-0.0115 -0.56371,-0.0115 -0.17256,0 -0.37964,-0.023 -0.5522,-0.023 -0.046,0 -0.17256,0 -0.17256,0.17256 0,0.11504 0.092,0.11504 0.26459,0.11504 0.0115,0 0.17257,0 0.31062,0.0115 0.16106,0.023 0.21858,0.0345 0.21858,0.11504 0,0.046 -0.023,0.10354 -0.0345,0.17256 l -1.0699,4.24508 c -0.069,0.2646 -0.092,0.34513 -0.69026,0.34513 -0.21858,0 -0.29911,0 -0.29911,0.17256 0,0.0115 0,0.11505 0.12655,0.11505 0.24159,0 0.85132,-0.0345 1.09291,-0.0345 l 0.5522,0.0115 c 0.17256,0 0.37964,0.023 0.55221,0.023 0.046,0 0.17256,0 0.17256,-0.17257 0,-0.11504 -0.10354,-0.11504 -0.2646,-0.11504 -0.0115,0 -0.18407,0 -0.34513,-0.023 -0.18407,-0.0115 -0.18407,-0.046 -0.18407,-0.11504 0,-0.0115 0,-0.0575 0.0345,-0.17257 z"
         id="path8862" />
    </g>
  </g>
  <path
     style="font-style:normal;font-variant:normal;font-weight:normal;font-stretch:normal;letter-spacing:normal;word-spacing:normal;text-anchor:start;fill:#000000;fill-opacity:1;fill-rule:evenodd;stroke:#000000;stroke-width:0;stroke-linecap:butt;stroke-linejoin:miter;stroke-miterlimit:10.43299961;stroke-dasharray:none;stroke-dashoffset:0;stroke-opacity:1"
     inkscape:connector-curvature="0"
     d="m 359.24592,359.94293 0.0123,-0.037 0.0123,-0.037 0.0123,-0.037 0.0123,-0.037 v -0.0247 l 0.0123,-0.037 0.0123,-0.0247 0.0123,-0.037 0.0123,-0.0247 0.0123,-0.0247 0.0247,-0.0247 0.0123,-0.0247 0.0247,-0.0123 0.0123,-0.0247 0.0247,-0.0123 0.0247,-0.0247 0.037,-0.0123 0.0247,-0.0123 0.037,-0.0123 0.037,-0.0123 0.037,-0.0123 h 0.0247 l 0.0247,-0.0123 h 0.0247 0.0247 l 0.0247,-0.0123 h 0.0247 0.0247 l 0.0247,-0.0123 h 0.037 0.0247 0.037 0.0247 l 0.037,-0.0123 h 0.037 0.037 0.037 0.037 0.037 0.037 0.0493 0.037 0.0493 c 0.29629,0 0.39506,0 0.39506,-0.23457 0,-0.14814 -0.1358,-0.14814 -0.18518,-0.14814 -0.35804,0 -1.27162,0.037 -1.62964,0.037 -0.37038,0 -1.25927,-0.037 -1.62964,-0.037 -0.0864,0 -0.24692,0 -0.24692,0.24691 0,0.1358 0.11111,0.1358 0.34569,0.1358 0.51851,0 0.8395,0 0.8395,0.23458 0,0.0618 0,0.0864 -0.0247,0.19752 l -1.65432,6.60497 c -0.11111,0.45679 -0.14816,0.58024 -1.12347,0.58024 -0.28394,0 -0.39506,0 -0.39506,0.24693 0,0.12345 0.14815,0.12345 0.18518,0.12345 0.35804,0 1.25927,-0.037 1.61729,-0.037 0.37038,0 1.28396,0.037 1.64199,0.037 0.0988,0 0.24692,0 0.24692,-0.22222 0,-0.14816 -0.0988,-0.14816 -0.35804,-0.14816 -0.23456,0 -0.28394,0 -0.53086,-0.0247 -0.25926,-0.0247 -0.30864,-0.0741 -0.30864,-0.20988 0,-0.0988 0.0247,-0.19754 0.0493,-0.28396 z"
     id="path8868" />
  <path
     style="font-style:normal;font-variant:normal;font-weight:normal;font-stretch:normal;letter-spacing:normal;word-spacing:normal;text-anchor:start;fill:#000000;fill-opacity:1;fill-rule:evenodd;stroke:#000000;stroke-width:0;stroke-linecap:butt;stroke-linejoin:miter;stroke-miterlimit:10.43299961;stroke-dasharray:none;stroke-dashoffset:0;stroke-opacity:1"
     inkscape:connector-curvature="0"
     d="m 352.45804,359.00083 v -0.05 l 0.0125,-0.05 v -0.05 l 0.0125,-0.05 0.0125,-0.05 0.0125,-0.0625 0.0125,-0.05 0.0125,-0.05 0.025,-0.0625 0.025,-0.05 0.025,-0.0625 0.025,-0.05 0.0375,-0.05 0.0375,-0.05 0.0375,-0.0625 0.05,-0.05 0.05,-0.05 0.05,-0.05 0.0625,-0.05 0.0625,-0.0375 0.0625,-0.05 0.075,-0.0375 0.075,-0.0375 0.075,-0.0375 0.0875,-0.0375 0.0875,-0.025 0.1,-0.0375 0.1,-0.025 h 0.05 l 0.0625,-0.0125 0.05,-0.0125 0.0625,-0.0125 h 0.05 l 0.0625,-0.0125 h 0.0625 l 0.0625,-0.0125 c 0.0625,-0.0125 0.1125,-0.0625 0.1125,-0.1375 0,-0.1375 -0.1,-0.1375 -0.2375,-0.1375 -1.25,0 -2.375,0.6375 -2.3875,1.5625 v 2.825 c 0,0.4875 0,0.8875 -0.5,1.2875 -0.4375,0.3625 -0.9125,0.3875 -1.1875,0.4 -0.0625,0.0125 -0.1125,0.0625 -0.1125,0.1375 0,0.125 0.075,0.125 0.2,0.1375 0.825,0.05 1.425,0.5 1.5625,1.1125 0.0375,0.125 0.0375,0.15 0.0375,0.6 v 2.4625 c 0,0.525 0,0.9125 0.6,1.3875 0.475,0.375 1.3,0.5125 1.7875,0.5125 0.1375,0 0.2375,0 0.2375,-0.1375 0,-0.125 -0.075,-0.125 -0.2,-0.1375 -0.7875,-0.05 -1.4,-0.45 -1.5625,-1.075 -0.0375,-0.1125 -0.0375,-0.1375 -0.0375,-0.5875 v -2.6125 c 0,-0.5625 -0.1,-0.775 -0.5,-1.175 -0.25,-0.2625 -0.6125,-0.3875 -0.9625,-0.4875 1.025,-0.2875 1.4625,-0.85 1.4625,-1.575 z"
     id="path8655-1" />
  <path
     style="font-style:normal;font-variant:normal;font-weight:normal;font-stretch:normal;letter-spacing:normal;word-spacing:normal;text-anchor:start;fill:#000000;fill-opacity:1;fill-rule:evenodd;stroke:#000000;stroke-width:0;stroke-linecap:butt;stroke-linejoin:miter;stroke-miterlimit:10.43299961;stroke-dasharray:none;stroke-dashoffset:0;stroke-opacity:1"
     inkscape:connector-curvature="0"
     d="m 363.65804,368.11333 v 0.0375 0.05 l -0.0125,0.05 v 0.0625 l -0.0125,0.05 -0.0125,0.05 -0.0125,0.05 -0.025,0.0625 -0.025,0.05 -0.0125,0.0625 -0.0375,0.05 -0.025,0.05 -0.0375,0.0625 -0.0375,0.05 -0.0375,0.05 -0.05,0.05 -0.05,0.05 -0.05,0.05 -0.05,0.05 -0.0625,0.05 -0.075,0.0375 -0.0625,0.0375 -0.075,0.0375 -0.0875,0.0375 -0.0875,0.0375 -0.0875,0.0375 -0.1,0.025 -0.1,0.025 -0.05,0.0125 -0.05,0.0125 h -0.0625 l -0.05,0.0125 -0.0625,0.0125 h -0.0625 l -0.0625,0.0125 h -0.0625 c -0.0625,0.0125 -0.1125,0.0625 -0.1125,0.1375 0,0.1375 0.1375,0.1375 0.25,0.1375 1.2125,0 2.375,-0.6125 2.3875,-1.55 v -2.8375 c 0,-0.4875 0,-0.875 0.5,-1.2875 0.425,-0.3625 0.9,-0.3875 1.175,-0.4 0.0625,-0.0125 0.1125,-0.0625 0.1125,-0.1375 0,-0.125 -0.075,-0.125 -0.2,-0.1375 -0.825,-0.05 -1.4125,-0.4875 -1.55,-1.1 -0.0375,-0.1375 -0.0375,-0.1625 -0.0375,-0.6125 v -2.45 c 0,-0.525 0,-0.925 -0.6,-1.4 -0.5,-0.3875 -1.3625,-0.5125 -1.7875,-0.5125 -0.1125,0 -0.25,0 -0.25,0.1375 0,0.125 0.075,0.125 0.2,0.1375 0.7875,0.05 1.4,0.45 1.5625,1.0875 0.0375,0.1125 0.0375,0.1375 0.0375,0.575 v 2.6125 c 0,0.575 0.1,0.7875 0.5,1.175 0.2625,0.2625 0.625,0.3875 0.975,0.4875 -1.025,0.2875 -1.475,0.8625 -1.475,1.575 z"
     id="path8659-5" />
  <path
     style="fill:none;stroke:#000000;stroke-width:0.9375;stroke-linecap:butt;stroke-linejoin:miter;stroke-miterlimit:4;stroke-dasharray:1.87500002, 0.9375;stroke-dashoffset:0;stroke-opacity:1"
     d="M 367.28385,274.37102 H 575.1382"
     id="path9037"
     inkscape:connector-curvature="0"
     sodipodi:nodetypes="cc" />
  <path
     transform="matrix(0.82276314,-0.5683844,0.5684047,0.82274911,0,0)"
     style="opacity:1;fill:none;fill-opacity:1;fill-rule:evenodd;stroke:#000000;stroke-width:0.703125;stroke-miterlimit:4;stroke-dasharray:none;stroke-dashoffset:0;stroke-opacity:1;marker-start:url(#marker10018)"
     id="path10252-4"
     sodipodi:type="arc"
     sodipodi:cx="228.53902"
     sodipodi:cy="488.84543"
     sodipodi:rx="62.63187"
     sodipodi:ry="62.879353"
     sodipodi:start="0.036465691"
     sodipodi:end="0.63431364"
     d="m 291.12925,491.13786 a 62.63187,62.879353 0 0 1 -12.1416,34.97143"
     sodipodi:open="true" />
  <path
     style="fill:none;stroke:#000000;stroke-width:0.9375;stroke-linecap:butt;stroke-linejoin:miter;stroke-opacity:1;stroke-miterlimit:4;stroke-dasharray:1.875,0.9375;stroke-dashoffset:0"
     d="M 463.87948,274.37102 V 354.2595"
     id="path10995"
     inkscape:connector-curvature="0" />
</svg>
