<?xml version="1.0" encoding="UTF-8" standalone="no"?>
<!-- Created with Inkscape (http://www.inkscape.org/) -->

<svg
   xmlns:dc="http://purl.org/dc/elements/1.1/"
   xmlns:cc="http://creativecommons.org/ns#"
   xmlns:rdf="http://www.w3.org/1999/02/22-rdf-syntax-ns#"
   xmlns:svg="http://www.w3.org/2000/svg"
   xmlns="http://www.w3.org/2000/svg"
   xmlns:sodipodi="http://sodipodi.sourceforge.net/DTD/sodipodi-0.dtd"
   xmlns:inkscape="http://www.inkscape.org/namespaces/inkscape"
   version="1.1"
   id="svg2"
   xml:space="preserve"
   width="330.70001"
   height="323.00134"
   viewBox="0 0 330.70001 323.00134"
   sodipodi:docname="OMG_Example.svg"
   inkscape:version="0.92.1 r15371"><metadata
     id="metadata8"><rdf:RDF><cc:Work
         rdf:about=""><dc:format>image/svg+xml</dc:format><dc:type
           rdf:resource="http://purl.org/dc/dcmitype/StillImage" /><dc:title /></cc:Work></rdf:RDF></metadata><defs
     id="defs6"><clipPath
       clipPathUnits="userSpaceOnUse"
       id="clipPath20"><path
         d="M 54,58.2334 H 564.861 V 741.919 H 54 Z"
         id="path18"
         inkscape:connector-curvature="0" /></clipPath><clipPath
       clipPathUnits="userSpaceOnUse"
       id="clipPath32"><path
         d="M 54,58.2334 H 564.861 V 741.919 H 54 Z"
         id="path30"
         inkscape:connector-curvature="0" /></clipPath><clipPath
       clipPathUnits="userSpaceOnUse"
       id="clipPath274"><path
         d="M -0.295547,-0.494446 H 104.263 V 108.315 H -0.295547 Z"
         id="path272"
         inkscape:connector-curvature="0" /></clipPath><clipPath
       clipPathUnits="userSpaceOnUse"
       id="clipPath284"><path
         d="M 0,0 H 194.272 V 161.396 H 0 Z"
         id="path282"
         inkscape:connector-curvature="0" /></clipPath><clipPath
       clipPathUnits="userSpaceOnUse"
       id="clipPath298"><path
         d="M 0,0 H 194.272 V 161.396 H 0 Z"
         id="path296"
         inkscape:connector-curvature="0" /></clipPath><clipPath
       clipPathUnits="userSpaceOnUse"
       id="clipPath502"><path
         d="M 0,0 H 101.48 V 108.117 H 0 Z"
         id="path500"
         inkscape:connector-curvature="0" /></clipPath><clipPath
       clipPathUnits="userSpaceOnUse"
       id="clipPath512"><path
         d="M 0,0 H 194.272 V 161.396 H 0 Z"
         id="path510"
         inkscape:connector-curvature="0" /></clipPath><clipPath
       clipPathUnits="userSpaceOnUse"
       id="clipPath526"><path
         d="M 0,0 H 194.272 V 161.396 H 0 Z"
         id="path524"
         inkscape:connector-curvature="0" /></clipPath><clipPath
       clipPathUnits="userSpaceOnUse"
       id="clipPath756"><path
         d="M 21.9164,267.106 H 249.464 V 438.092 H 21.9164 Z"
         id="path754"
         inkscape:connector-curvature="0" /></clipPath><clipPath
       clipPathUnits="userSpaceOnUse"
       id="clipPath766"><path
         d="M 0,0 H 323.255 V 254.955 H 0 Z"
         id="path764"
         inkscape:connector-curvature="0" /></clipPath><clipPath
       clipPathUnits="userSpaceOnUse"
       id="clipPath778"><path
         d="M 0,0 H 323.255 V 254.955 H 0 Z"
         id="path776"
         inkscape:connector-curvature="0" /></clipPath><clipPath
       clipPathUnits="userSpaceOnUse"
       id="clipPath790"><path
         d="M 0,0 H 323.255 V 254.955 H 0 Z"
         id="path788"
         inkscape:connector-curvature="0" /></clipPath><clipPath
       clipPathUnits="userSpaceOnUse"
       id="clipPath802"><path
         d="M 0,0 H 323.255 V 254.955 H 0 Z"
         id="path800"
         inkscape:connector-curvature="0" /></clipPath><clipPath
       clipPathUnits="userSpaceOnUse"
       id="clipPath814"><path
         d="M 0,0 H 323.255 V 254.955 H 0 Z"
         id="path812"
         inkscape:connector-curvature="0" /></clipPath><clipPath
       clipPathUnits="userSpaceOnUse"
       id="clipPath826"><path
         d="M 0,0 H 323.255 V 254.955 H 0 Z"
         id="path824"
         inkscape:connector-curvature="0" /></clipPath><clipPath
       clipPathUnits="userSpaceOnUse"
       id="clipPath838"><path
         d="M 0,0 H 323.255 V 254.955 H 0 Z"
         id="path836"
         inkscape:connector-curvature="0" /></clipPath><clipPath
       clipPathUnits="userSpaceOnUse"
       id="clipPath850"><path
         d="M 0,0 H 323.255 V 254.955 H 0 Z"
         id="path848"
         inkscape:connector-curvature="0" /></clipPath><clipPath
       clipPathUnits="userSpaceOnUse"
       id="clipPath862"><path
         d="M 0,0 H 323.255 V 254.955 H 0 Z"
         id="path860"
         inkscape:connector-curvature="0" /></clipPath><clipPath
       clipPathUnits="userSpaceOnUse"
       id="clipPath874"><path
         d="M 0,0 H 323.255 V 254.955 H 0 Z"
         id="path872"
         inkscape:connector-curvature="0" /></clipPath><clipPath
       clipPathUnits="userSpaceOnUse"
       id="clipPath900"><path
         d="M 13.1394,161.45 H 151.013 V 275.398 H 13.1394 Z"
         id="path898"
         inkscape:connector-curvature="0" /></clipPath><clipPath
       clipPathUnits="userSpaceOnUse"
       id="clipPath910"><path
         d="M 0,0 H 194.274 V 161.395 H 0 Z"
         id="path908"
         inkscape:connector-curvature="0" /></clipPath><clipPath
       clipPathUnits="userSpaceOnUse"
       id="clipPath922"><path
         d="M 0,0 H 194.274 V 161.395 H 0 Z"
         id="path920"
         inkscape:connector-curvature="0" /></clipPath><clipPath
       clipPathUnits="userSpaceOnUse"
       id="clipPath934"><path
         d="M 0,0 H 194.274 V 161.395 H 0 Z"
         id="path932"
         inkscape:connector-curvature="0" /></clipPath><clipPath
       clipPathUnits="userSpaceOnUse"
       id="clipPath946"><path
         d="M 0,0 H 194.274 V 161.395 H 0 Z"
         id="path944"
         inkscape:connector-curvature="0" /></clipPath><clipPath
       clipPathUnits="userSpaceOnUse"
       id="clipPath958"><path
         d="M 0,0 H 194.274 V 161.395 H 0 Z"
         id="path956"
         inkscape:connector-curvature="0" /></clipPath><clipPath
       clipPathUnits="userSpaceOnUse"
       id="clipPath970"><path
         d="M 0,0 H 194.274 V 161.395 H 0 Z"
         id="path968"
         inkscape:connector-curvature="0" /></clipPath><clipPath
       clipPathUnits="userSpaceOnUse"
       id="clipPath982"><path
         d="M 0,0 H 194.274 V 161.395 H 0 Z"
         id="path980"
         inkscape:connector-curvature="0" /></clipPath></defs><sodipodi:namedview
     pagecolor="#ffffff"
     bordercolor="#666666"
     borderopacity="1"
     objecttolerance="10"
     gridtolerance="10"
     guidetolerance="10"
     inkscape:pageopacity="0"
     inkscape:pageshadow="2"
     inkscape:window-width="2491"
     inkscape:window-height="1417"
     id="namedview4"
     showgrid="false"
     inkscape:zoom="1.4612942"
     inkscape:cx="-314.9691"
     inkscape:cy="37.465963"
     inkscape:window-x="61"
     inkscape:window-y="-8"
     inkscape:window-maximized="1"
     inkscape:current-layer="g10" /><g
     id="g10"
     inkscape:groupmode="layer"
     inkscape:label="OMG_Example"
     transform="matrix(1.3333333,0,0,-1.3333333,-426.436,989.884)"><g
       clip-path="url(#clipPath284)"
       id="g280"
       transform="matrix(1.06654,0,0,1.06654,290.97873,583.54011)"><g
         transform="translate(128.058,40.3489)"
         id="g286"><path
           inkscape:connector-curvature="0"
           id="path288"
           style="fill:none;stroke:#0000ff;stroke-width:0.398;stroke-linecap:butt;stroke-linejoin:miter;stroke-miterlimit:10;stroke-dasharray:2.989, 2.989;stroke-dashoffset:0;stroke-opacity:1"
           d="M 0,0 -37.107,39.615" /></g></g><g
       clip-path="url(#clipPath298)"
       id="g294"
       transform="matrix(1.06654,0,0,1.06654,290.97873,583.54011)"><path
         d="m 90.9514,98.3047 1.079,-0.036 1.074,-0.109 1.066,-0.18 1.053,-0.251 1.037,-0.322 1.015,-0.39 0.99,-0.458 0.962,-0.523 0.929,-0.586 0.893,-0.648 0.852,-0.706 0.81,-0.762 0.763,-0.815 0.714,-0.864 0.661,-0.91 0.607,-0.953 0.549,-0.992 0.49,-1.026 0.429,-1.058 0.365,-1.084 0.301,-1.106 0.236,-1.125 0.169,-1.138 0.101,-1.147 0.034,-1.151 -0.034,-1.152 -0.101,-1.147 -0.169,-1.138 -0.236,-1.125 -0.301,-1.106 -0.365,-1.084 -0.429,-1.057 -0.49,-1.027 -0.549,-0.992 -0.607,-0.953 -0.661,-0.91 -0.714,-0.864 -0.763,-0.815 -0.81,-0.762 -0.852,-0.706 -0.893,-0.648 -0.929,-0.586 -0.962,-0.523 -0.99,-0.458 -1.015,-0.39 -1.037,-0.322 -1.053,-0.251 -1.066,-0.18 -1.074,-0.109 -1.079,-0.036 -1.079,0.036 -1.074,0.109 -1.066,0.18 -1.053,0.251 -1.037,0.322 -1.015,0.39 -0.99,0.458 -0.962,0.523 -0.929,0.586 -0.893,0.648 -0.852,0.706 -0.81,0.762 -0.763,0.815 -0.714,0.864 -0.661,0.91 -0.607,0.953 -0.549,0.992 -0.49,1.027 -0.429,1.057 -0.365,1.084 -0.301,1.106 -0.236,1.125 -0.169,1.138 -0.101,1.147 -0.034,1.152 0.034,1.151 0.101,1.147 0.169,1.138 0.236,1.125 0.301,1.106 0.365,1.084 0.429,1.058 0.49,1.026 0.549,0.992 0.607,0.953 0.661,0.91 0.714,0.864 0.763,0.815 0.81,0.762 0.852,0.706 0.893,0.648 0.929,0.586 0.962,0.523 0.99,0.458 1.015,0.39 1.037,0.322 1.053,0.251 1.066,0.18 1.074,0.109 1.079,0.036"
         style="fill:none;stroke:#ff0000;stroke-width:0.398;stroke-linecap:butt;stroke-linejoin:miter;stroke-miterlimit:10;stroke-dasharray:none;stroke-opacity:1"
         id="path302"
         inkscape:connector-curvature="0" /><path
         inkscape:connector-curvature="0"
         id="path306"
         style="fill:none;stroke:#008000;stroke-width:0.398;stroke-linecap:butt;stroke-linejoin:miter;stroke-miterlimit:10;stroke-dasharray:none;stroke-opacity:1"
         d="m 72.0571,69.7441 0.431,-0.014 0.43,-0.044 0.427,-0.072 0.421,-0.1 0.414,-0.129 0.407,-0.156 0.396,-0.183 0.384,-0.209 0.372,-0.235 0.357,-0.259 0.341,-0.283 0.324,-0.304 0.305,-0.326 0.286,-0.346 0.264,-0.364 0.243,-0.381 0.22,-0.397 0.196,-0.411 0.171,-0.423 0.146,-0.433 0.121,-0.443 0.094,-0.45 0.067,-0.455 0.041,-0.459 0.014,-0.46 -0.014,-0.461 -0.041,-0.459 -0.067,-0.455 -0.094,-0.45 -0.121,-0.442 -0.146,-0.434 -0.171,-0.423 -0.196,-0.41 -0.22,-0.397 -0.243,-0.381 -0.264,-0.364 -0.286,-0.346 -0.305,-0.326 -0.324,-0.305 -0.341,-0.282 -0.357,-0.259 -0.372,-0.235 -0.384,-0.209 -0.396,-0.183 -0.407,-0.156 -0.414,-0.129 -0.421,-0.1 -0.427,-0.072 -0.43,-0.044 -0.431,-0.014 -0.431,0.014 -0.43,0.044 -0.427,0.072 -0.421,0.1 -0.414,0.129 -0.407,0.156 -0.396,0.183 -0.384,0.209 -0.372,0.235 -0.357,0.259 -0.341,0.282 -0.324,0.305 -0.305,0.326 -0.286,0.346 -0.264,0.364 -0.243,0.381 -0.22,0.397 -0.196,0.41 -0.171,0.423 -0.146,0.434 -0.121,0.442 -0.094,0.45 -0.067,0.455 -0.041,0.459 -0.014,0.461 0.014,0.46 0.041,0.459 0.067,0.455 0.094,0.45 0.121,0.443 0.146,0.433 0.171,0.423 0.196,0.411 0.22,0.397 0.243,0.381 0.264,0.364 0.286,0.346 0.305,0.326 0.324,0.304 0.341,0.283 0.357,0.259 0.372,0.235 0.384,0.209 0.396,0.183 0.407,0.156 0.414,0.129 0.421,0.1 0.427,0.072 0.43,0.044 0.431,0.014" /><path
         d="m 72.0571,62.408 -0.38,0.976 -0.443,0.96 -0.492,0.947 -0.53,0.939 -0.554,0.936 -0.564,0.937 -0.562,0.944 -0.547,0.954 -0.519,0.97 -0.477,0.99 -0.426,1.013 -0.378,1.036 -0.336,1.055 -0.301,1.071 -0.272,1.086 -0.25,1.097 -0.233,1.105 -0.223,1.112 -0.22,1.114 -0.223,1.116 -0.23,1.113 -0.227,1.11 -0.216,1.106 -0.193,1.1 -0.159,1.094 -0.114,1.087 -0.059,1.078 0.007,1.069 0.084,1.058 0.171,1.047 0.267,1.032 0.358,1.014 0.444,0.989 0.524,0.957 0.596,0.92 0.663,0.875 0.722,0.825 0.776,0.769 0.824,0.706 0.864,0.636 0.9,0.564 0.929,0.499 0.956,0.444 0.977,0.397 0.996,0.363 1.008,0.336 1.018,0.321 1.023,0.316 1.024,0.319 1.021,0.333 1.014,0.355 1.008,0.373 1.004,0.385 1.001,0.391 1,0.39 1,0.385 1.003,0.373 1.006,0.354 1.011,0.33 1.018,0.3 1.026,0.266 1.034,0.233 1.04,0.203 1.046,0.177 1.052,0.154 1.056,0.135 1.059,0.119 1.062,0.105 1.064,0.097 1.065,0.09 1.065,0.087 1.065,0.085 1.065,0.083 1.066,0.082 1.065,0.08 1.066,0.08 1.066,0.08 1.065,0.08 1.066,0.08 1.065,0.082 1.066,0.084 1.065,0.084 1.065,0.086 1.065,0.087 1.066,0.087 1.065,0.088 1.065,0.087 1.065,0.088 1.065,0.088 1.065,0.087 1.062,0.086 1.04,0.084 0.998,0.08 0.934,0.075 0.848,0.067 0.743,0.059 0.614,0.049 0.465,0.036 0.295,0.024 0.103,0.008"
         style="fill:none;stroke:#008000;stroke-width:0.398;stroke-linecap:butt;stroke-linejoin:miter;stroke-miterlimit:10;stroke-dasharray:none;stroke-opacity:1"
         id="path310"
         inkscape:connector-curvature="0" /><path
         inkscape:connector-curvature="0"
         id="path314"
         style="fill:none;stroke:#0000ff;stroke-width:0.398;stroke-linecap:butt;stroke-linejoin:miter;stroke-miterlimit:10;stroke-dasharray:none;stroke-opacity:1"
         d="m 90.9514,79.9642 -1.282,1.369 -1.282,1.368 -1.282,1.369 -1.282,1.368 -1.282,1.369 -1.282,1.369 -1.282,1.368 -1.281,1.369 -1.282,1.368 -1.282,1.369 -1.282,1.369 -1.282,1.368 -1.282,1.369 -1.282,1.368 -1.282,1.369 -1.282,1.369 -1.282,1.368 -1.282,1.369 -1.282,1.369 -1.282,1.368 -1.282,1.369 -1.282,1.368 -1.282,1.369 -1.281,1.369 -1.282,1.368 -1.282,1.369 -1.282,1.368 -1.282,1.369 -1.282,1.369 -1.282,1.368 -1.282,1.369 -1.282,1.368 -1.282,1.369 -1.282,1.369 -1.282,1.368 -1.282,1.369 -1.282,1.368 -1.282,1.369 -1.282,1.369 -1.281,1.368 -1.282,1.369"
         sodipodi:nodetypes="cccccccccccccccccccccccccccccccccccccccccc" /></g><path
       inkscape:connector-curvature="0"
       id="path318"
       style="fill:none;stroke:#ff0000;stroke-width:0.42448291;stroke-linecap:butt;stroke-linejoin:miter;stroke-miterlimit:10;stroke-dasharray:none;stroke-opacity:1"
       d="m 425.30369,624.3198 4.50826,4.50826 m -4.50826,0 4.50826,-4.50826" /><path
       inkscape:connector-curvature="0"
       id="path322"
       style="fill:none;stroke:#ff0000;stroke-width:0.42448291;stroke-linecap:butt;stroke-linejoin:miter;stroke-miterlimit:10;stroke-dasharray:none;stroke-opacity:1"
       d="m 425.30369,702.56299 4.50826,4.50826 m -4.50826,0 4.50826,-4.50826" /><path
       inkscape:connector-curvature="0"
       id="path326"
       style="fill:none;stroke:#ff0000;stroke-width:0.42448291;stroke-linecap:butt;stroke-linejoin:miter;stroke-miterlimit:10;stroke-dasharray:none;stroke-opacity:1"
       d="m 352.01532,624.3198 4.50826,4.50826 m -4.50826,0 4.50826,-4.50826" /><path
       inkscape:connector-curvature="0"
       id="path330"
       style="fill:none;stroke:#000000;stroke-width:0.42448291;stroke-linecap:butt;stroke-linejoin:miter;stroke-miterlimit:10;stroke-dasharray:none;stroke-opacity:1"
       d="m 353.57002,625.87802 1.50275,1.50275 m -1.50275,0 1.50275,-1.50275" /><path
       inkscape:connector-curvature="0"
       id="path334"
       style="fill:none;stroke:#000000;stroke-width:0.42448291;stroke-linecap:butt;stroke-linejoin:miter;stroke-miterlimit:10;stroke-dasharray:none;stroke-opacity:1"
       d="m 353.71646,626.03437 1.50275,1.50275 m -1.50275,0 1.50275,-1.50275" /><path
       inkscape:connector-curvature="0"
       id="path338"
       style="fill:none;stroke:#000000;stroke-width:0.42448291;stroke-linecap:butt;stroke-linejoin:miter;stroke-miterlimit:10;stroke-dasharray:none;stroke-opacity:1"
       d="m 353.94288,626.27626 1.50275,1.50275 m -1.50275,0 1.50275,-1.50275" /><path
       inkscape:connector-curvature="0"
       id="path342"
       style="fill:none;stroke:#000000;stroke-width:0.42448291;stroke-linecap:butt;stroke-linejoin:miter;stroke-miterlimit:10;stroke-dasharray:none;stroke-opacity:1"
       d="m 354.23714,626.59036 1.50275,1.50275 m -1.50275,0 1.50275,-1.50275" /><path
       inkscape:connector-curvature="0"
       id="path346"
       style="fill:none;stroke:#000000;stroke-width:0.42448291;stroke-linecap:butt;stroke-linejoin:miter;stroke-miterlimit:10;stroke-dasharray:none;stroke-opacity:1"
       d="m 354.58846,626.96557 1.50275,1.50275 m -1.50275,0 1.50275,-1.50275" /><path
       inkscape:connector-curvature="0"
       id="path350"
       style="fill:none;stroke:#000000;stroke-width:0.42448291;stroke-linecap:butt;stroke-linejoin:miter;stroke-miterlimit:10;stroke-dasharray:none;stroke-opacity:1"
       d="m 354.9882,627.39229 1.50275,1.50275 m -1.50275,0 1.50275,-1.50275" /><path
       inkscape:connector-curvature="0"
       id="path354"
       style="fill:none;stroke:#000000;stroke-width:0.42448291;stroke-linecap:butt;stroke-linejoin:miter;stroke-miterlimit:10;stroke-dasharray:none;stroke-opacity:1"
       d="m 355.42857,627.86264 1.50275,1.50275 m -1.50275,0 1.50275,-1.50275" /><path
       inkscape:connector-curvature="0"
       id="path358"
       style="fill:none;stroke:#000000;stroke-width:0.42448291;stroke-linecap:butt;stroke-linejoin:miter;stroke-miterlimit:10;stroke-dasharray:none;stroke-opacity:1"
       d="m 355.90329,628.36956 1.50275,1.50275 m -1.50275,0 1.50275,-1.50275" /><path
       inkscape:connector-curvature="0"
       id="path362"
       style="fill:none;stroke:#000000;stroke-width:0.42448291;stroke-linecap:butt;stroke-linejoin:miter;stroke-miterlimit:10;stroke-dasharray:none;stroke-opacity:1"
       d="m 356.4068,628.90721 1.50275,1.50275 m -1.50275,0 1.50275,-1.50275" /><path
       inkscape:connector-curvature="0"
       id="path366"
       style="fill:none;stroke:#000000;stroke-width:0.42448291;stroke-linecap:butt;stroke-linejoin:miter;stroke-miterlimit:10;stroke-dasharray:none;stroke-opacity:1"
       d="m 356.93453,629.47087 1.50275,1.50275 m -1.50275,0 1.50275,-1.50275" /><path
       inkscape:connector-curvature="0"
       id="path370"
       style="fill:none;stroke:#000000;stroke-width:0.42448291;stroke-linecap:butt;stroke-linejoin:miter;stroke-miterlimit:10;stroke-dasharray:none;stroke-opacity:1"
       d="m 357.48262,630.05619 1.50275,1.50275 m -1.50275,0 1.50275,-1.50275" /><path
       inkscape:connector-curvature="0"
       id="path374"
       style="fill:none;stroke:#000000;stroke-width:0.42448291;stroke-linecap:butt;stroke-linejoin:miter;stroke-miterlimit:10;stroke-dasharray:none;stroke-opacity:1"
       d="m 358.04778,630.65964 1.50275,1.50275 m -1.50275,0 1.50275,-1.50275" /><path
       inkscape:connector-curvature="0"
       id="path378"
       style="fill:none;stroke:#000000;stroke-width:0.42448291;stroke-linecap:butt;stroke-linejoin:miter;stroke-miterlimit:10;stroke-dasharray:none;stroke-opacity:1"
       d="m 358.62713,631.27834 1.50275,1.50275 m -1.50275,0 1.50275,-1.50275" /><path
       inkscape:connector-curvature="0"
       id="path382"
       style="fill:none;stroke:#000000;stroke-width:0.42448291;stroke-linecap:butt;stroke-linejoin:miter;stroke-miterlimit:10;stroke-dasharray:none;stroke-opacity:1"
       d="m 359.21831,631.90973 1.50275,1.50275 m -1.50275,0 1.50275,-1.50275" /><path
       inkscape:connector-curvature="0"
       id="path386"
       style="fill:none;stroke:#000000;stroke-width:0.42448291;stroke-linecap:butt;stroke-linejoin:miter;stroke-miterlimit:10;stroke-dasharray:none;stroke-opacity:1"
       d="m 359.81941,632.55179 1.50275,1.50275 m -1.50275,0 1.50275,-1.50275" /><path
       inkscape:connector-curvature="0"
       id="path390"
       style="fill:none;stroke:#000000;stroke-width:0.42448291;stroke-linecap:butt;stroke-linejoin:miter;stroke-miterlimit:10;stroke-dasharray:none;stroke-opacity:1"
       d="m 360.42873,633.20259 1.50275,1.50275 m -1.50275,0 1.50275,-1.50275" /><path
       inkscape:connector-curvature="0"
       id="path394"
       style="fill:none;stroke:#000000;stroke-width:0.42448291;stroke-linecap:butt;stroke-linejoin:miter;stroke-miterlimit:10;stroke-dasharray:none;stroke-opacity:1"
       d="m 361.04487,633.86086 1.50275,1.50275 m -1.50275,0 1.50275,-1.50275" /><path
       inkscape:connector-curvature="0"
       id="path398"
       style="fill:none;stroke:#000000;stroke-width:0.42448291;stroke-linecap:butt;stroke-linejoin:miter;stroke-miterlimit:10;stroke-dasharray:none;stroke-opacity:1"
       d="m 361.66581,634.52595 1.50275,1.50275 m -1.50275,0 1.50275,-1.50275" /><path
       inkscape:connector-curvature="0"
       id="path402"
       style="fill:none;stroke:#000000;stroke-width:0.42448291;stroke-linecap:butt;stroke-linejoin:miter;stroke-miterlimit:10;stroke-dasharray:none;stroke-opacity:1"
       d="m 362.2876,635.2 1.50275,1.50275 m -1.50275,0 1.50275,-1.50275" /><path
       inkscape:connector-curvature="0"
       id="path406"
       style="fill:none;stroke:#000000;stroke-width:0.42448291;stroke-linecap:butt;stroke-linejoin:miter;stroke-miterlimit:10;stroke-dasharray:none;stroke-opacity:1"
       d="m 362.90363,635.88739 1.50275,1.50275 m -1.50275,0 1.50275,-1.50275" /><path
       inkscape:connector-curvature="0"
       id="path410"
       style="fill:none;stroke:#000000;stroke-width:0.42448291;stroke-linecap:butt;stroke-linejoin:miter;stroke-miterlimit:10;stroke-dasharray:none;stroke-opacity:1"
       d="m 363.50804,636.59184 1.50275,1.50275 m -1.50275,0 1.50275,-1.50275" /><path
       inkscape:connector-curvature="0"
       id="path414"
       style="fill:none;stroke:#000000;stroke-width:0.42448291;stroke-linecap:butt;stroke-linejoin:miter;stroke-miterlimit:10;stroke-dasharray:none;stroke-opacity:1"
       d="m 364.09474,637.31634 1.50275,1.50275 m -1.50275,0 1.50275,-1.50275" /><path
       inkscape:connector-curvature="0"
       id="path418"
       style="fill:none;stroke:#000000;stroke-width:0.42448291;stroke-linecap:butt;stroke-linejoin:miter;stroke-miterlimit:10;stroke-dasharray:none;stroke-opacity:1"
       d="m 364.65766,638.06345 1.50275,1.50275 m -1.50275,0 1.50275,-1.50275" /><path
       inkscape:connector-curvature="0"
       id="path422"
       style="fill:none;stroke:#000000;stroke-width:0.42448291;stroke-linecap:butt;stroke-linejoin:miter;stroke-miterlimit:10;stroke-dasharray:none;stroke-opacity:1"
       d="m 365.19168,638.83456 1.50275,1.50275 m -1.50275,0 1.50275,-1.50275" /><path
       inkscape:connector-curvature="0"
       id="path426"
       style="fill:none;stroke:#000000;stroke-width:0.42448291;stroke-linecap:butt;stroke-linejoin:miter;stroke-miterlimit:10;stroke-dasharray:none;stroke-opacity:1"
       d="m 365.69359,639.62935 1.50275,1.50275 m -1.50275,0 1.50275,-1.50275" /><path
       inkscape:connector-curvature="0"
       id="path430"
       style="fill:none;stroke:#000000;stroke-width:0.42448291;stroke-linecap:butt;stroke-linejoin:miter;stroke-miterlimit:10;stroke-dasharray:none;stroke-opacity:1"
       d="m 366.15818,640.44791 1.50275,1.50275 m -1.50275,0 1.50275,-1.50275" /><path
       inkscape:connector-curvature="0"
       id="path434"
       style="fill:none;stroke:#000000;stroke-width:0.42448291;stroke-linecap:butt;stroke-linejoin:miter;stroke-miterlimit:10;stroke-dasharray:none;stroke-opacity:1"
       d="m 366.5769,641.29069 1.50275,1.50275 m -1.50275,0 1.50275,-1.50275" /><path
       inkscape:connector-curvature="0"
       id="path438"
       style="fill:none;stroke:#000000;stroke-width:0.42448291;stroke-linecap:butt;stroke-linejoin:miter;stroke-miterlimit:10;stroke-dasharray:none;stroke-opacity:1"
       d="m 366.9375,642.15704 1.50275,1.50275 m -1.50275,0 1.50275,-1.50275" /><path
       inkscape:connector-curvature="0"
       id="path442"
       style="fill:none;stroke:#000000;stroke-width:0.42448291;stroke-linecap:butt;stroke-linejoin:miter;stroke-miterlimit:10;stroke-dasharray:none;stroke-opacity:1"
       d="m 367.22962,643.04441 1.50275,1.50275 m -1.50275,0 1.50275,-1.50275" /><path
       inkscape:connector-curvature="0"
       id="path446"
       style="fill:none;stroke:#000000;stroke-width:0.42448291;stroke-linecap:butt;stroke-linejoin:miter;stroke-miterlimit:10;stroke-dasharray:none;stroke-opacity:1"
       d="m 367.44709,643.94798 1.50275,1.50275 m -1.50275,0 1.50275,-1.50275" /><path
       inkscape:connector-curvature="0"
       id="path450"
       style="fill:none;stroke:#000000;stroke-width:0.42448291;stroke-linecap:butt;stroke-linejoin:miter;stroke-miterlimit:10;stroke-dasharray:none;stroke-opacity:1"
       d="m 367.58489,644.86222 1.50275,1.50275 m -1.50275,0 1.50275,-1.50275" /><path
       inkscape:connector-curvature="0"
       id="path454"
       style="fill:none;stroke:#000000;stroke-width:0.42448291;stroke-linecap:butt;stroke-linejoin:miter;stroke-miterlimit:10;stroke-dasharray:none;stroke-opacity:1"
       d="m 367.64248,645.78115 1.50275,1.50275 m -1.50275,0 1.50275,-1.50275" /><path
       inkscape:connector-curvature="0"
       id="path458"
       style="fill:none;stroke:#000000;stroke-width:0.42448291;stroke-linecap:butt;stroke-linejoin:miter;stroke-miterlimit:10;stroke-dasharray:none;stroke-opacity:1"
       d="m 367.62115,646.69805 1.50275,1.50275 m -1.50275,0 1.50275,-1.50275" /><path
       inkscape:connector-curvature="0"
       id="path462"
       style="fill:none;stroke:#000000;stroke-width:0.42448291;stroke-linecap:butt;stroke-linejoin:miter;stroke-miterlimit:10;stroke-dasharray:none;stroke-opacity:1"
       d="m 367.52164,647.60546 1.50275,1.50275 m -1.50275,0 1.50275,-1.50275" /><path
       inkscape:connector-curvature="0"
       id="path466"
       style="fill:none;stroke:#000000;stroke-width:0.42448291;stroke-linecap:butt;stroke-linejoin:miter;stroke-miterlimit:10;stroke-dasharray:none;stroke-opacity:1"
       d="m 367.33958,648.49112 1.50275,1.50275 m -1.50275,0 1.50275,-1.50275" /><path
       inkscape:connector-curvature="0"
       id="path470"
       style="fill:none;stroke:#000000;stroke-width:0.42448291;stroke-linecap:butt;stroke-linejoin:miter;stroke-miterlimit:10;stroke-dasharray:none;stroke-opacity:1"
       d="m 367.07914,649.34936 1.50275,1.50275 m -1.50275,0 1.50275,-1.50275" /><path
       inkscape:connector-curvature="0"
       id="path474"
       style="fill:#ffffff;fill-opacity:1;fill-rule:nonzero;stroke:#000000;stroke-width:0.42448294;stroke-linecap:butt;stroke-linejoin:miter;stroke-miterlimit:10;stroke-dasharray:none;stroke-opacity:1"
       d="m 347.13527,715.00823 h 98.87543 v 23.23884 h -98.87543 z" /><g
       id="g12406"
       transform="translate(-1.9246638,-0.64155459)"><path
         d="m 350.53539,732.6853 h 9.06986 9.06985"
         style="fill:none;stroke:#008000;stroke-width:0.75;stroke-linecap:butt;stroke-linejoin:miter;stroke-miterlimit:10;stroke-dasharray:none;stroke-opacity:1"
         id="path480"
         inkscape:connector-curvature="0" /><text
         y="-730.15845"
         x="371.01297"
         id="text484"
         style="font-variant:normal;font-weight:normal;font-stretch:normal;font-size:5.33269978px;font-family:Arial;-inkscape-font-specification:ArialMT;writing-mode:lr-tb;fill:#000000;fill-opacity:1;fill-rule:nonzero;stroke:none;stroke-width:1.06654"
         transform="scale(1,-1)"><tspan
           y="-730.15845"
           x="371.01297"
           style="font-size:10px;stroke-width:1.06654"
           id="tspan482"
           sodipodi:role="line">Motion trajectory</tspan><tspan
           id="tspan12395"
           y="-721.80078"
           x="371.01297"
           style="stroke-width:1.06654"
           sodipodi:role="line" /></text>
</g><g
       id="g12400"
       transform="translate(-1.9246638,-2.0529747)"><path
         d="m 350.53539,723.21008 h 9.06986 9.06985"
         style="fill:none;stroke:#0000ff;stroke-width:0.75;stroke-linecap:butt;stroke-linejoin:miter;stroke-miterlimit:10;stroke-dasharray:none;stroke-opacity:1"
         id="path488"
         inkscape:connector-curvature="0" /><text
         y="-720.62463"
         x="370.9639"
         id="text492"
         style="font-variant:normal;font-weight:normal;font-stretch:normal;font-size:5.33269978px;font-family:Arial;-inkscape-font-specification:ArialMT;writing-mode:lr-tb;fill:#000000;fill-opacity:1;fill-rule:nonzero;stroke:none;stroke-width:1.06654"
         transform="scale(1,-1)"><tspan
           y="-720.62463"
           x="370.9639"
           style="font-size:10px;stroke-width:1.06654"
           id="tspan490"
           sodipodi:role="line">Linear prediction</tspan></text>
</g><g
       clip-path="url(#clipPath512)"
       id="g508"
       transform="matrix(1.09264,0,0,1.09264,405.44884,582.55523)"><g
         transform="translate(128.058,40.3489)"
         id="g514"><path
           inkscape:connector-curvature="0"
           id="path516"
           style="fill:none;stroke:#0000ff;stroke-width:0.398;stroke-linecap:butt;stroke-linejoin:miter;stroke-miterlimit:10;stroke-dasharray:2.989, 2.989;stroke-dashoffset:0;stroke-opacity:1"
           d="M 0,0 -31.953,34.113" /></g></g><g
       clip-path="url(#clipPath526)"
       id="g522"
       transform="matrix(1.09264,0,0,1.09264,405.44884,582.55523)"><g
         transform="translate(96.1051,92.8026)"
         id="g528"><path
           inkscape:connector-curvature="0"
           id="path530"
           style="fill:none;stroke:#ff0000;stroke-width:0.398;stroke-linecap:butt;stroke-linejoin:miter;stroke-miterlimit:10;stroke-dasharray:none;stroke-opacity:1"
           d="m 0,0 1.079,-0.036 1.074,-0.109 1.066,-0.18 1.053,-0.251 1.037,-0.322 1.015,-0.39 0.99,-0.458 0.962,-0.523 0.929,-0.586 0.893,-0.648 0.852,-0.706 0.81,-0.762 0.763,-0.815 0.714,-0.864 0.661,-0.91 0.607,-0.953 0.549,-0.992 0.49,-1.026 0.429,-1.058 0.365,-1.084 0.301,-1.106 0.236,-1.125 0.169,-1.138 0.101,-1.147 0.034,-1.151 -0.034,-1.152 -0.101,-1.147 -0.169,-1.138 -0.236,-1.125 -0.301,-1.106 -0.365,-1.084 -0.429,-1.057 -0.49,-1.027 -0.549,-0.992 -0.607,-0.953 -0.661,-0.91 -0.714,-0.864 -0.763,-0.815 -0.81,-0.762 -0.852,-0.706 -0.893,-0.648 -0.929,-0.586 -0.962,-0.523 -0.99,-0.458 -1.015,-0.39 -1.037,-0.322 -1.053,-0.251 -1.066,-0.18 -1.074,-0.109 -1.079,-0.036 -1.079,0.036 -1.074,0.109 -1.066,0.18 -1.053,0.251 -1.037,0.322 -1.015,0.39 -0.99,0.458 -0.962,0.523 -0.929,0.586 -0.893,0.648 -0.852,0.706 -0.81,0.762 -0.763,0.815 -0.714,0.864 -0.661,0.91 -0.607,0.953 -0.549,0.992 -0.49,1.027 -0.429,1.057 -0.365,1.084 -0.301,1.106 -0.236,1.125 -0.169,1.138 -0.101,1.147 -0.034,1.152 0.034,1.151 0.101,1.147 0.169,1.138 0.236,1.125 0.301,1.106 0.365,1.084 0.429,1.058 0.49,1.026 0.549,0.992 0.607,0.953 0.661,0.91 0.714,0.864 0.763,0.815 0.81,0.762 0.852,0.706 0.893,0.648 0.929,0.586 0.962,0.523 0.99,0.458 1.015,0.39 1.037,0.322 1.053,0.251 1.066,0.18 1.074,0.109 L 0,0" /></g><g
         transform="translate(77.2735,60.791)"
         id="g532"><path
           inkscape:connector-curvature="0"
           id="path534"
           style="fill:none;stroke:#008000;stroke-width:0.398;stroke-linecap:butt;stroke-linejoin:miter;stroke-miterlimit:10;stroke-dasharray:none;stroke-opacity:1"
           d="M 0,0 0.431,-0.014 0.861,-0.058 1.288,-0.13 1.709,-0.23 2.123,-0.359 2.53,-0.515 2.926,-0.698 3.31,-0.907 3.682,-1.142 4.039,-1.401 4.38,-1.684 4.704,-1.988 5.009,-2.314 5.295,-2.66 5.559,-3.024 5.802,-3.405 6.022,-3.802 6.218,-4.213 6.389,-4.636 6.535,-5.069 6.656,-5.512 6.75,-5.962 6.817,-6.417 6.858,-6.876 6.872,-7.336 6.858,-7.797 6.817,-8.256 6.75,-8.711 6.656,-9.161 6.535,-9.603 6.389,-10.037 6.218,-10.46 6.022,-10.87 5.802,-11.267 5.559,-11.648 5.295,-12.012 5.009,-12.358 4.704,-12.684 4.38,-12.989 4.039,-13.271 3.682,-13.53 3.31,-13.765 2.926,-13.974 2.53,-14.157 2.123,-14.313 1.709,-14.442 1.288,-14.542 0.861,-14.615 0.431,-14.658 0,-14.672 l -0.431,0.014 -0.43,0.043 -0.427,0.073 -0.421,0.1 -0.414,0.129 -0.407,0.156 -0.396,0.183 -0.384,0.209 -0.372,0.235 -0.357,0.259 -0.341,0.282 -0.324,0.305 -0.305,0.326 -0.286,0.346 -0.264,0.364 -0.243,0.381 -0.22,0.397 -0.196,0.41 -0.171,0.423 -0.146,0.434 -0.121,0.442 -0.094,0.45 -0.067,0.455 -0.041,0.459 -0.014,0.461 0.014,0.46 0.041,0.459 0.067,0.455 0.094,0.45 0.121,0.443 0.146,0.433 0.171,0.423 0.196,0.411 0.22,0.397 0.243,0.381 0.264,0.364 0.286,0.346 0.305,0.326 0.324,0.304 0.341,0.283 0.357,0.259 0.372,0.235 0.384,0.209 0.396,0.183 0.407,0.156 0.414,0.129 0.421,0.1 0.427,0.072 0.43,0.044 L 0,0" /></g><g
         transform="translate(77.2735,53.4549)"
         id="g536"><path
           inkscape:connector-curvature="0"
           id="path538"
           style="fill:none;stroke:#008000;stroke-width:0.398;stroke-linecap:butt;stroke-linejoin:miter;stroke-miterlimit:10;stroke-dasharray:none;stroke-opacity:1"
           d="m 0,0 0.605,0.537 0.604,0.538 0.605,0.538 0.604,0.54 0.605,0.538 0.605,0.539 0.607,0.537 0.608,0.535 0.609,0.534 0.612,0.531 0.614,0.528 0.615,0.526 0.615,0.526 0.615,0.526 0.613,0.528 0.612,0.531 0.607,0.534 0.604,0.54 0.598,0.547 0.593,0.554 0.585,0.562 0.579,0.571 0.571,0.579 0.564,0.588 0.557,0.595 0.549,0.603 0.542,0.611 0.535,0.618 0.527,0.626 0.52,0.632 0.512,0.639 0.505,0.645 0.5,0.65 0.496,0.654 0.492,0.657 0.489,0.659 0.488,0.661 0.488,0.661 0.488,0.661 0.49,0.659 0.492,0.657 0.495,0.655 0.496,0.654 0.498,0.652 0.5,0.651 0.5,0.65 0.501,0.65 0.501,0.65 0.5,0.65 0.5,0.651 0.499,0.652 0.498,0.652 0.497,0.653 0.497,0.653 0.496,0.654 0.496,0.654 0.495,0.655 0.496,0.654 0.495,0.654 0.496,0.655 0.496,0.654 0.496,0.654 0.497,0.653 0.496,0.654 0.497,0.653 0.497,0.654 0.497,0.653 0.497,0.653 0.497,0.653 0.497,0.654 0.496,0.653 0.497,0.653 0.497,0.654 0.496,0.653 0.497,0.654 0.497,0.653 0.496,0.654 0.497,0.654 0.496,0.653 0.497,0.654 0.496,0.653 0.497,0.654 0.496,0.653 0.497,0.654 0.497,0.653 0.496,0.654 0.497,0.653 0.497,0.654 0.496,0.653 0.497,0.654 0.495,0.651 0.485,0.638 0.465,0.613 0.435,0.572 0.396,0.521 0.346,0.455 0.286,0.377 0.217,0.286 0.137,0.181 0.049,0.063" /></g><g
         transform="translate(96.1051,74.4621)"
         id="g540"><path
           inkscape:connector-curvature="0"
           id="path542"
           style="fill:none;stroke:#0000ff;stroke-width:0.398;stroke-linecap:butt;stroke-linejoin:miter;stroke-miterlimit:10;stroke-dasharray:none;stroke-opacity:1"
           d="m 0,0 -0.946,1.01 -0.946,1.01 -0.946,1.01 -0.946,1.01 -0.946,1.009 -0.946,1.01 -0.946,1.01 -0.946,1.01 -0.945,1.01 -0.946,1.01 -0.946,1.01 -0.946,1.01 -0.946,1.01 -0.946,1.009 -0.946,1.01 -0.946,1.01 -0.946,1.01 -0.946,1.01 -0.946,1.01 -0.946,1.01 -0.946,1.01 -0.946,1.01 -0.946,1.01 -0.946,1.009 -0.945,1.01 -0.946,1.01 -0.946,1.01 -0.946,1.01 -0.946,1.01 -0.946,1.01 -0.946,1.01 -0.946,1.01 -0.946,1.009 -0.946,1.01 -0.946,1.01 -0.946,1.01 -0.946,1.01 -0.946,1.01 -0.946,1.01 -0.946,1.01 -0.946,1.01 -0.945,1.009 -0.946,1.01 -0.946,1.01 -0.946,1.01 -0.946,1.01 -0.946,1.01 -0.946,1.01 -0.946,1.01 -0.946,1.01 -0.946,1.01 -0.946,1.009 -0.946,1.01 -0.946,1.01 -0.946,1.01 -0.946,1.01 -0.946,1.01 -0.946,1.01 -0.945,1.01 -0.946,1.01"
           sodipodi:nodetypes="ccccccccccccccccccccccccccccccccccccccccccccccccccccccccccccc" /></g></g><g
       transform="matrix(1.09264,0,0,1.09264,543.06095,624.33287)"
       id="g546"><path
         inkscape:connector-curvature="0"
         id="path548"
         style="fill:none;stroke:#ff0000;stroke-width:0.398;stroke-linecap:butt;stroke-linejoin:miter;stroke-miterlimit:10;stroke-dasharray:none;stroke-opacity:1"
         d="M 0,0 4.227,4.227 M 0,4.227 4.227,0" /></g><g
       transform="matrix(1.09264,0,0,1.09264,543.06095,704.49079)"
       id="g552"><path
         inkscape:connector-curvature="0"
         id="path554"
         style="fill:none;stroke:#ff0000;stroke-width:0.398;stroke-linecap:butt;stroke-linejoin:miter;stroke-miterlimit:10;stroke-dasharray:none;stroke-opacity:1"
         d="M 0,0 4.227,4.227 M 0,4.227 4.227,0" /></g><g
       transform="matrix(1.09264,0,0,1.09264,467.9791,624.33287)"
       id="g558"><path
         inkscape:connector-curvature="0"
         id="path560"
         style="fill:none;stroke:#ff0000;stroke-width:0.398;stroke-linecap:butt;stroke-linejoin:miter;stroke-miterlimit:10;stroke-dasharray:none;stroke-opacity:1"
         d="M 0,0 4.227,4.227 M 0,4.227 4.227,0" /></g><g
       transform="matrix(1.09264,0,0,1.09264,469.5832,625.91184)"
       id="g564"><path
         inkscape:connector-curvature="0"
         id="path566"
         style="fill:none;stroke:#000000;stroke-width:0.398;stroke-linecap:butt;stroke-linejoin:miter;stroke-miterlimit:10;stroke-dasharray:none;stroke-opacity:1"
         d="M 0,0 1.409,1.409 M 0,1.409 1.409,0" /></g><g
       transform="matrix(1.09264,0,0,1.09264,469.76491,626.02416)"
       id="g570"><path
         inkscape:connector-curvature="0"
         id="path572"
         style="fill:none;stroke:#000000;stroke-width:0.398;stroke-linecap:butt;stroke-linejoin:miter;stroke-miterlimit:10;stroke-dasharray:none;stroke-opacity:1"
         d="M 0,0 1.409,1.409 M 0,1.409 1.409,0" /></g><g
       transform="matrix(1.09264,0,0,1.09264,470.04594,626.19888)"
       id="g576"><path
         inkscape:connector-curvature="0"
         id="path578"
         style="fill:none;stroke:#000000;stroke-width:0.398;stroke-linecap:butt;stroke-linejoin:miter;stroke-miterlimit:10;stroke-dasharray:none;stroke-opacity:1"
         d="M 0,0 1.409,1.409 M 0,1.409 1.409,0" /></g><g
       transform="matrix(1.09264,0,0,1.09264,470.41252,626.42352)"
       id="g582"><path
         inkscape:connector-curvature="0"
         id="path584"
         style="fill:none;stroke:#000000;stroke-width:0.398;stroke-linecap:butt;stroke-linejoin:miter;stroke-miterlimit:10;stroke-dasharray:none;stroke-opacity:1"
         d="M 0,0 1.409,1.409 M 0,1.409 1.409,0" /></g><g
       transform="matrix(1.09264,0,0,1.09264,470.85329,626.6874)"
       id="g588"><path
         inkscape:connector-curvature="0"
         id="path590"
         style="fill:none;stroke:#000000;stroke-width:0.398;stroke-linecap:butt;stroke-linejoin:miter;stroke-miterlimit:10;stroke-dasharray:none;stroke-opacity:1"
         d="M 0,0 1.409,1.409 M 0,1.409 1.409,0" /></g><g
       transform="matrix(1.09264,0,0,1.09264,471.35721,626.98416)"
       id="g594"><path
         inkscape:connector-curvature="0"
         id="path596"
         style="fill:none;stroke:#000000;stroke-width:0.398;stroke-linecap:butt;stroke-linejoin:miter;stroke-miterlimit:10;stroke-dasharray:none;stroke-opacity:1"
         d="M 0,0 1.409,1.409 M 0,1.409 1.409,0" /></g><g
       transform="matrix(1.09264,0,0,1.09264,471.91369,627.31031)"
       id="g600"><path
         inkscape:connector-curvature="0"
         id="path602"
         style="fill:none;stroke:#000000;stroke-width:0.398;stroke-linecap:butt;stroke-linejoin:miter;stroke-miterlimit:10;stroke-dasharray:none;stroke-opacity:1"
         d="M 0,0 1.409,1.409 M 0,1.409 1.409,0" /></g><g
       transform="matrix(1.09264,0,0,1.09264,472.51355,627.66312)"
       id="g606"><path
         inkscape:connector-curvature="0"
         id="path608"
         style="fill:none;stroke:#000000;stroke-width:0.398;stroke-linecap:butt;stroke-linejoin:miter;stroke-miterlimit:10;stroke-dasharray:none;stroke-opacity:1"
         d="M 0,0 1.409,1.409 M 0,1.409 1.409,0" /></g><g
       transform="matrix(1.09264,0,0,1.09264,473.14881,628.0403)"
       id="g612"><path
         inkscape:connector-curvature="0"
         id="path614"
         style="fill:none;stroke:#000000;stroke-width:0.398;stroke-linecap:butt;stroke-linejoin:miter;stroke-miterlimit:10;stroke-dasharray:none;stroke-opacity:1"
         d="M 0,0 1.409,1.409 M 0,1.409 1.409,0" /></g><g
       transform="matrix(1.09264,0,0,1.09264,473.81281,628.44032)"
       id="g618"><path
         inkscape:connector-curvature="0"
         id="path620"
         style="fill:none;stroke:#000000;stroke-width:0.398;stroke-linecap:butt;stroke-linejoin:miter;stroke-miterlimit:10;stroke-dasharray:none;stroke-opacity:1"
         d="M 0,0 1.409,1.409 M 0,1.409 1.409,0" /></g><g
       transform="matrix(1.09264,0,0,1.09264,474.49975,628.86131)"
       id="g624"><path
         inkscape:connector-curvature="0"
         id="path626"
         style="fill:none;stroke:#000000;stroke-width:0.398;stroke-linecap:butt;stroke-linejoin:miter;stroke-miterlimit:10;stroke-dasharray:none;stroke-opacity:1"
         d="M 0,0 1.409,1.409 M 0,1.409 1.409,0" /></g><g
       transform="matrix(1.09264,0,0,1.09264,475.20484,629.30187)"
       id="g630"><path
         inkscape:connector-curvature="0"
         id="path632"
         style="fill:none;stroke:#000000;stroke-width:0.398;stroke-linecap:butt;stroke-linejoin:miter;stroke-miterlimit:10;stroke-dasharray:none;stroke-opacity:1"
         d="M 0,0 1.409,1.409 M 0,1.409 1.409,0" /></g><g
       transform="matrix(1.09264,0,0,1.09264,475.9239,629.76067)"
       id="g636"><path
         inkscape:connector-curvature="0"
         id="path638"
         style="fill:none;stroke:#000000;stroke-width:0.398;stroke-linecap:butt;stroke-linejoin:miter;stroke-miterlimit:10;stroke-dasharray:none;stroke-opacity:1"
         d="M 0,0 1.409,1.409 M 0,1.409 1.409,0" /></g><g
       transform="matrix(1.09264,0,0,1.09264,476.65368,630.2364)"
       id="g642"><path
         inkscape:connector-curvature="0"
         id="path644"
         style="fill:none;stroke:#000000;stroke-width:0.398;stroke-linecap:butt;stroke-linejoin:miter;stroke-miterlimit:10;stroke-dasharray:none;stroke-opacity:1"
         d="M 0,0 1.409,1.409 M 0,1.409 1.409,0" /></g><g
       transform="matrix(1.09264,0,0,1.09264,477.39099,630.72831)"
       id="g648"><path
         inkscape:connector-curvature="0"
         id="path650"
         style="fill:none;stroke:#000000;stroke-width:0.398;stroke-linecap:butt;stroke-linejoin:miter;stroke-miterlimit:10;stroke-dasharray:none;stroke-opacity:1"
         d="M 0,0 1.409,1.409 M 0,1.409 1.409,0" /></g><g
       transform="matrix(1.09264,0,0,1.09264,478.13322,631.23573)"
       id="g654"><path
         inkscape:connector-curvature="0"
         id="path656"
         style="fill:none;stroke:#000000;stroke-width:0.398;stroke-linecap:butt;stroke-linejoin:miter;stroke-miterlimit:10;stroke-dasharray:none;stroke-opacity:1"
         d="M 0,0 1.409,1.409 M 0,1.409 1.409,0" /></g><g
       transform="matrix(1.09264,0,0,1.09264,478.87807,631.75834)"
       id="g660"><path
         inkscape:connector-curvature="0"
         id="path662"
         style="fill:none;stroke:#000000;stroke-width:0.398;stroke-linecap:butt;stroke-linejoin:miter;stroke-miterlimit:10;stroke-dasharray:none;stroke-opacity:1"
         d="M 0,0 1.409,1.409 M 0,1.409 1.409,0" /></g><g
       transform="matrix(1.09264,0,0,1.09264,479.62303,632.29614)"
       id="g666"><path
         inkscape:connector-curvature="0"
         id="path668"
         style="fill:none;stroke:#000000;stroke-width:0.398;stroke-linecap:butt;stroke-linejoin:miter;stroke-miterlimit:10;stroke-dasharray:none;stroke-opacity:1"
         d="M 0,0 1.409,1.409 M 0,1.409 1.409,0" /></g><g
       transform="matrix(1.09264,0,0,1.09264,480.36592,632.84978)"
       id="g672"><path
         inkscape:connector-curvature="0"
         id="path674"
         style="fill:none;stroke:#000000;stroke-width:0.398;stroke-linecap:butt;stroke-linejoin:miter;stroke-miterlimit:10;stroke-dasharray:none;stroke-opacity:1"
         d="M 0,0 1.409,1.409 M 0,1.409 1.409,0" /></g><g
       transform="matrix(1.09264,0,0,1.09264,481.10586,633.41806)"
       id="g678"><path
         inkscape:connector-curvature="0"
         id="path680"
         style="fill:none;stroke:#000000;stroke-width:0.398;stroke-linecap:butt;stroke-linejoin:miter;stroke-miterlimit:10;stroke-dasharray:none;stroke-opacity:1"
         d="M 0,0 1.409,1.409 M 0,1.409 1.409,0" /></g><g
       transform="matrix(1.09264,0,0,1.09264,481.84306,633.99902)"
       id="g684"><path
         inkscape:connector-curvature="0"
         id="path686"
         style="fill:none;stroke:#000000;stroke-width:0.398;stroke-linecap:butt;stroke-linejoin:miter;stroke-miterlimit:10;stroke-dasharray:none;stroke-opacity:1"
         d="M 0,0 1.409,1.409 M 0,1.409 1.409,0" /></g><g
       transform="matrix(1.09264,0,0,1.09264,482.57775,634.59068)"
       id="g690"><path
         inkscape:connector-curvature="0"
         id="path692"
         style="fill:none;stroke:#000000;stroke-width:0.398;stroke-linecap:butt;stroke-linejoin:miter;stroke-miterlimit:10;stroke-dasharray:none;stroke-opacity:1"
         d="M 0,0 1.409,1.409 M 0,1.409 1.409,0" /></g><g
       transform="matrix(1.09264,0,0,1.09264,483.31015,635.1913)"
       id="g696"><path
         inkscape:connector-curvature="0"
         id="path698"
         style="fill:none;stroke:#000000;stroke-width:0.398;stroke-linecap:butt;stroke-linejoin:miter;stroke-miterlimit:10;stroke-dasharray:none;stroke-opacity:1"
         d="M 0,0 1.409,1.409 M 0,1.409 1.409,0" /></g><g
       transform="matrix(1.09264,0,0,1.09264,484.04047,635.79969)"
       id="g702"><path
         inkscape:connector-curvature="0"
         id="path704"
         style="fill:none;stroke:#000000;stroke-width:0.398;stroke-linecap:butt;stroke-linejoin:miter;stroke-miterlimit:10;stroke-dasharray:none;stroke-opacity:1"
         d="M 0,0 1.409,1.409 M 0,1.409 1.409,0" /></g><g
       transform="matrix(1.09264,0,0,1.09264,484.76904,636.41441)"
       id="g708"><path
         inkscape:connector-curvature="0"
         id="path710"
         style="fill:none;stroke:#000000;stroke-width:0.398;stroke-linecap:butt;stroke-linejoin:miter;stroke-miterlimit:10;stroke-dasharray:none;stroke-opacity:1"
         d="M 0,0 1.409,1.409 M 0,1.409 1.409,0" /></g><g
       transform="matrix(1.09264,0,0,1.09264,485.49586,637.0347)"
       id="g714"><path
         inkscape:connector-curvature="0"
         id="path716"
         style="fill:none;stroke:#000000;stroke-width:0.398;stroke-linecap:butt;stroke-linejoin:miter;stroke-miterlimit:10;stroke-dasharray:none;stroke-opacity:1"
         d="M 0,0 1.409,1.409 M 0,1.409 1.409,0" /></g><g
       transform="matrix(1.09264,0,0,1.09264,486.22127,637.65958)"
       id="g720"><path
         inkscape:connector-curvature="0"
         id="path722"
         style="fill:none;stroke:#000000;stroke-width:0.398;stroke-linecap:butt;stroke-linejoin:miter;stroke-miterlimit:10;stroke-dasharray:none;stroke-opacity:1"
         d="M 0,0 1.409,1.409 M 0,1.409 1.409,0" /></g><g
       transform="matrix(1.09264,0,0,1.09264,486.94536,638.28839)"
       id="g726"><path
         inkscape:connector-curvature="0"
         id="path728"
         style="fill:none;stroke:#000000;stroke-width:0.398;stroke-linecap:butt;stroke-linejoin:miter;stroke-miterlimit:10;stroke-dasharray:none;stroke-opacity:1"
         d="M 0,0 1.409,1.409 M 0,1.409 1.409,0" /></g><g
       transform="matrix(1.09264,0,0,1.09264,487.66836,638.92038)"
       id="g732"><path
         inkscape:connector-curvature="0"
         id="path734"
         style="fill:none;stroke:#000000;stroke-width:0.398;stroke-linecap:butt;stroke-linejoin:miter;stroke-miterlimit:10;stroke-dasharray:none;stroke-opacity:1"
         d="M 0,0 1.409,1.409 M 0,1.409 1.409,0" /></g><g
       transform="matrix(1.09264,0,0,1.09264,488.39016,639.55531)"
       id="g738"><path
         inkscape:connector-curvature="0"
         id="path740"
         style="fill:none;stroke:#000000;stroke-width:0.398;stroke-linecap:butt;stroke-linejoin:miter;stroke-miterlimit:10;stroke-dasharray:none;stroke-opacity:1"
         d="M 0,0 1.409,1.409 M 0,1.409 1.409,0" /></g><g
       transform="matrix(1.09264,0,0,1.09264,489.11119,640.19243)"
       id="g744"><path
         inkscape:connector-curvature="0"
         id="path746"
         style="fill:none;stroke:#000000;stroke-width:0.398;stroke-linecap:butt;stroke-linejoin:miter;stroke-miterlimit:10;stroke-dasharray:none;stroke-opacity:1"
         d="M 0,0 1.409,1.409 M 0,1.409 1.409,0" /></g><g
       clip-path="url(#clipPath766)"
       id="g762"
       transform="matrix(0.51077,0,0,0.51077,298.68417,489.83144)"><g
         transform="translate(80.8137,50.9909)"
         id="g768"><path
           inkscape:connector-curvature="0"
           id="path770"
           style="fill:none;stroke:#008000;stroke-width:0.398;stroke-linecap:butt;stroke-linejoin:miter;stroke-miterlimit:10;stroke-dasharray:none;stroke-opacity:1"
           d="m 0,0 0.254,-0.009 0.252,-0.028 0.251,-0.045 0.248,-0.064 0.244,-0.081 0.238,-0.099 0.233,-0.115 0.227,-0.132 0.218,-0.149 0.21,-0.163 0.201,-0.179 0.19,-0.192 0.18,-0.206 0.167,-0.219 0.156,-0.23 0.143,-0.241 0.129,-0.25 0.115,-0.26 0.101,-0.267 0.086,-0.274 0.071,-0.28 0.055,-0.284 0.04,-0.288 L 4.033,-4.344 4.041,-4.636 4.033,-4.927 4.009,-5.217 3.969,-5.504 3.914,-5.788 3.843,-6.068 3.757,-6.342 3.656,-6.609 3.541,-6.869 3.412,-7.119 3.269,-7.36 3.113,-7.59 2.946,-7.809 2.766,-8.015 2.576,-8.207 2.375,-8.386 2.165,-8.549 1.947,-8.698 1.72,-8.83 1.487,-8.946 1.249,-9.044 1.005,-9.125 0.757,-9.189 0.506,-9.235 0.254,-9.262 0,-9.271 l -0.254,0.009 -0.252,0.027 -0.251,0.046 -0.248,0.064 -0.244,0.081 -0.238,0.098 -0.233,0.116 -0.227,0.132 -0.218,0.149 -0.21,0.163 -0.201,0.179 -0.19,0.192 -0.18,0.206 -0.167,0.219 -0.156,0.23 -0.143,0.241 -0.129,0.25 -0.115,0.26 -0.101,0.267 -0.086,0.274 -0.071,0.28 -0.055,0.284 -0.04,0.287 -0.024,0.29 -0.008,0.291 0.008,0.292 0.024,0.289 0.04,0.288 0.055,0.284 0.071,0.28 0.086,0.274 0.101,0.267 0.115,0.26 0.129,0.25 0.143,0.241 0.156,0.23 0.167,0.219 0.18,0.206 0.19,0.192 0.201,0.179 0.21,0.163 0.218,0.149 0.227,0.132 0.233,0.115 0.238,0.099 0.244,0.081 0.248,0.064 0.251,0.045 0.252,0.028 L 0,0" /></g></g><g
       clip-path="url(#clipPath778)"
       id="g774"
       transform="matrix(0.51077,0,0,0.51077,298.68417,489.83144)"><g
         transform="translate(60.6103,69.5331)"
         id="g780"><path
           inkscape:connector-curvature="0"
           id="path782"
           style="fill:none;stroke:#ff0000;stroke-width:0.398;stroke-linecap:butt;stroke-linejoin:miter;stroke-miterlimit:10;stroke-dasharray:none;stroke-opacity:1"
           d="M 0,0 H 40.407 V 46.355 H 0 V 0" /></g></g><g
       clip-path="url(#clipPath790)"
       id="g786"
       transform="matrix(0.51077,0,0,0.51077,298.68417,489.83144)"><g
         transform="translate(141.424,69.5331)"
         id="g792"><path
           inkscape:connector-curvature="0"
           id="path794"
           style="fill:none;stroke:#ff0000;stroke-width:0.398;stroke-linecap:butt;stroke-linejoin:miter;stroke-miterlimit:10;stroke-dasharray:none;stroke-opacity:1"
           d="M 0,0 H 40.407 V 46.355 H 0 V 0" /></g></g><g
       clip-path="url(#clipPath802)"
       id="g798"
       transform="matrix(0.51077,0,0,0.51077,298.68417,489.83144)"><g
         transform="translate(222.2377,69.5331)"
         id="g804"><path
           inkscape:connector-curvature="0"
           id="path806"
           style="fill:none;stroke:#ff0000;stroke-width:0.398;stroke-linecap:butt;stroke-linejoin:miter;stroke-miterlimit:10;stroke-dasharray:none;stroke-opacity:1"
           d="M 0,0 H 40.407 V 46.355 H 0 V 0" /></g></g><g
       clip-path="url(#clipPath814)"
       id="g810"
       transform="matrix(0.51077,0,0,0.51077,298.68417,489.83144)"><g
         transform="translate(60.6103,139.0662)"
         id="g816"><path
           inkscape:connector-curvature="0"
           id="path818"
           style="fill:none;stroke:#ff0000;stroke-width:0.398;stroke-linecap:butt;stroke-linejoin:miter;stroke-miterlimit:10;stroke-dasharray:none;stroke-opacity:1"
           d="M 0,0 H 40.407 V 46.355 H 0 V 0" /></g></g><g
       clip-path="url(#clipPath826)"
       id="g822"
       transform="matrix(0.51077,0,0,0.51077,298.68417,489.83144)"><g
         transform="translate(222.2377,139.0662)"
         id="g828"><path
           inkscape:connector-curvature="0"
           id="path830"
           style="fill:none;stroke:#ff0000;stroke-width:0.398;stroke-linecap:butt;stroke-linejoin:miter;stroke-miterlimit:10;stroke-dasharray:none;stroke-opacity:1"
           d="M 0,0 H 40.407 V 46.355 H 0 V 0" /></g></g><g
       clip-path="url(#clipPath838)"
       id="g834"
       transform="matrix(0.51077,0,0,0.51077,298.68417,489.83144)"><g
         transform="translate(141.424,139.0662)"
         id="g840"><path
           inkscape:connector-curvature="0"
           id="path842"
           style="fill:none;stroke:#ff0000;stroke-width:0.398;stroke-linecap:butt;stroke-linejoin:miter;stroke-miterlimit:10;stroke-dasharray:none;stroke-opacity:1"
           d="M 0,0 H 40.407 V 46.355 H 0 V 0" /></g></g><g
       clip-path="url(#clipPath850)"
       id="g846"
       transform="matrix(0.51077,0,0,0.51077,298.68417,489.83144)"><g
         transform="translate(202.0343,185.4216)"
         id="g852"><path
           inkscape:connector-curvature="0"
           id="path854"
           style="fill:none;stroke:#ff0000;stroke-width:0.398;stroke-linecap:butt;stroke-linejoin:miter;stroke-miterlimit:10;stroke-dasharray:2.989, 5.978;stroke-dashoffset:0;stroke-opacity:1"
           d="m 0,0 1.269,-0.046 1.263,-0.137 1.254,-0.228 1.238,-0.317 1.219,-0.406 1.194,-0.494 1.165,-0.578 1.131,-0.661 1.093,-0.741 1.049,-0.819 1.003,-0.892 0.952,-0.963 0.898,-1.029 0.839,-1.093 0.778,-1.15 0.713,-1.204 0.646,-1.254 0.577,-1.297 0.504,-1.336 0.43,-1.37 0.354,-1.399 0.277,-1.421 0.198,-1.438 0.12,-1.449 0.039,-1.456 -0.039,-1.455 -0.12,-1.45 -0.198,-1.438 -0.277,-1.421 -0.354,-1.398 -0.43,-1.37 -0.504,-1.336 -0.577,-1.298 -0.646,-1.253 -0.713,-1.204 -0.778,-1.151 -0.839,-1.092 -0.898,-1.03 -0.952,-0.962 -1.003,-0.893 -1.049,-0.818 L 9.733,-43.488 8.602,-44.15 7.437,-44.728 6.243,-45.221 5.024,-45.627 3.786,-45.945 2.532,-46.173 1.269,-46.31 0,-46.355 l -1.269,0.045 -1.263,0.137 -1.254,0.228 -1.238,0.318 -1.219,0.406 -1.194,0.493 -1.165,0.578 -1.131,0.662 -1.093,0.741 -1.049,0.818 -1.003,0.893 -0.952,0.962 -0.898,1.03 -0.839,1.092 -0.778,1.151 -0.713,1.204 -0.646,1.253 -0.577,1.298 -0.504,1.336 -0.43,1.37 -0.354,1.398 -0.277,1.421 -0.198,1.438 -0.12,1.45 -0.039,1.455 0.039,1.456 0.12,1.449 0.198,1.438 0.277,1.421 0.354,1.399 0.43,1.37 0.504,1.336 0.577,1.297 0.646,1.254 0.713,1.204 0.778,1.15 0.839,1.093 0.898,1.029 0.952,0.963 1.003,0.892 1.049,0.819 1.093,0.741 1.131,0.661 1.165,0.578 1.194,0.494 1.219,0.406 1.238,0.317 1.254,0.228 1.263,0.137 L 0,0" /></g></g><g
       clip-path="url(#clipPath862)"
       id="g858"
       transform="matrix(0.51077,0,0,0.51077,298.68417,489.83144)"><g
         transform="translate(80.8137,46.3554)"
         id="g864"><path
           inkscape:connector-curvature="0"
           id="path866"
           style="fill:none;stroke:#008000;stroke-width:0.398;stroke-linecap:butt;stroke-linejoin:miter;stroke-miterlimit:10;stroke-dasharray:2.989, 5.978;stroke-dashoffset:0;stroke-opacity:1"
           d="m 0,0 0.034,0.014 0.102,0.041 0.165,0.068 0.225,0.094 0.284,0.122 0.338,0.148 0.39,0.175 0.439,0.2 0.484,0.227 0.527,0.252 0.567,0.278 0.604,0.303 0.637,0.329 0.667,0.353 0.696,0.378 0.72,0.403 0.741,0.428 0.76,0.452 0.776,0.476 0.788,0.5 0.798,0.523 0.804,0.547 0.807,0.571 0.808,0.593 0.806,0.617 0.8,0.64 0.792,0.662 0.78,0.684 0.765,0.707 0.748,0.729 0.727,0.751 0.704,0.772 0.681,0.793 0.66,0.813 0.64,0.833 0.62,0.85 0.601,0.868 0.584,0.885 0.567,0.901 0.552,0.915 0.537,0.929 0.524,0.943 0.511,0.955 0.5,0.966 0.49,0.977 0.479,0.987 0.472,0.996 0.464,1.004 0.457,1.012 0.452,1.017 0.448,1.024 0.444,1.028 0.442,1.031 0.441,1.035 0.44,1.037 0.44,1.039 0.442,1.039 0.445,1.038 0.449,1.037 0.453,1.036 0.459,1.032 0.465,1.028 0.473,1.024 0.481,1.019 0.489,1.014 0.497,1.008 0.505,1.001 0.513,0.996 0.522,0.988 0.531,0.981 0.54,0.974 0.549,0.965 0.558,0.957 0.567,0.948 0.577,0.939 0.586,0.93 0.597,0.92 0.606,0.909 0.616,0.898 0.627,0.888 0.637,0.876 0.648,0.864 0.659,0.852 0.669,0.84 0.681,0.826 0.691,0.813 0.704,0.8 0.714,0.785 0.727,0.771 0.738,0.756 0.75,0.74 0.763,0.725 0.775,0.709 0.787,0.693 0.799,0.676 0.811,0.66 0.822,0.643 0.834,0.627 0.844,0.609 0.854,0.593 0.864,0.577 0.874,0.559 0.882,0.542 0.892,0.525 0.9,0.509 0.908,0.491 0.916,0.474 0.923,0.456 0.93,0.439 0.937,0.422 0.943,0.404 0.948,0.387 0.954,0.369 0.96,0.352 0.964,0.334 0.968,0.316 0.973,0.298 0.976,0.28 0.98,0.262 0.982,0.244 0.985,0.226 0.987,0.208 0.989,0.19 0.991,0.171 0.991,0.153 0.993,0.135 0.993,0.117 0.995,0.101 0.995,0.083 0.996,0.067 0.997,0.051 0.998,0.036 0.998,0.02 0.998,0.005 0.999,-0.009 0.999,-0.023 1,-0.036 0.999,-0.05 1,-0.063 1,-0.075 1,-0.088 1,-0.099 1,-0.11 0.999,-0.122 0.999,-0.132 0.999,-0.142 0.998,-0.151 0.998,-0.161 0.998,-0.17 0.996,-0.179 0.996,-0.187 0.996,-0.194 0.994,-0.202 0.994,-0.209 0.992,-0.216 0.992,-0.222 0.99,-0.227 0.99,-0.232 0.989,-0.236 0.988,-0.24 0.988,-0.242 0.987,-0.244 0.986,-0.245 0.987,-0.246 0.986,-0.245 0.986,-0.245 0.986,-0.243 0.986,-0.241 0.986,-0.237 0.986,-0.234 0.986,-0.229 0.987,-0.225 0.987,-0.218 0.988,-0.212 0.989,-0.204 0.989,-0.196 0.99,-0.188 0.991,-0.178 0.992,-0.168 0.993,-0.157 0.994,-0.146 0.995,-0.133 0.997,-0.12 0.998,-0.107 0.999,-0.092 1.002,-0.077 1.002,-0.061 1.005,-0.045 1.005,-0.029 1.006,-0.014 1.006,0.004 1.007,0.019 1.007,0.037 1.006,0.052 1.005,0.07 1.005,0.087 1.003,0.103 1.002,0.121 1,0.138 0.998,0.155 0.996,0.173 0.992,0.191 0.99,0.208 0.987,0.227 0.983,0.244 0.979,0.262 0.975,0.281 0.97,0.299 0.966,0.318 0.961,0.336 0.955,0.355 0.95,0.374 0.944,0.393 0.938,0.412 0.931,0.432 0.924,0.451 0.918,0.47 0.91,0.49 0.903,0.509 0.894,0.528 0.887,0.548 0.877,0.565 0.869,0.585 0.86,0.602 0.85,0.621 0.84,0.638 0.831,0.655 0.819,0.673 0.809,0.69 0.798,0.706 0.787,0.724 0.775,0.739 0.763,0.755 0.751,0.772 0.738,0.787 0.726,0.802 0.712,0.817 0.698,0.832 0.685,0.847 0.671,0.861 0.656,0.876 0.641,0.889 0.627,0.903 0.611,0.917 0.595,0.93 0.58,0.942 0.563,0.956 0.546,0.968 0.53,0.98 0.513,0.992 0.495,1.004 0.479,1.014 0.462,1.026 0.444,1.035 0.427,1.045 0.41,1.055 0.392,1.064 0.375,1.072 0.357,1.081 0.34,1.088 0.322,1.095 0.304,1.103 0.287,1.109 0.269,1.116 0.25,1.121 0.233,1.126 0.215,1.131 0.196,1.136 0.179,1.14 0.16,1.144 0.142,1.147 0.123,1.15 0.105,1.152 0.087,1.155 0.067,1.156 0.05,1.158 0.03,1.158 0.012,1.159 -0.007,1.159 -0.026,1.158 -0.043,1.155 -0.06,1.149 -0.074,1.142 -0.088,1.131 -0.101,1.119 -0.112,1.104 -0.122,1.087 -0.13,1.066 -0.138,1.045 -0.145,1.02 -0.149,0.993 -0.153,0.963 -0.155,0.932 -0.157,0.898 -0.157,0.861 -0.155,0.822 -0.153,0.781 -0.15,0.737 -0.144,0.691 -0.138,0.642 -0.13,0.592 -0.122,0.538 -0.112,0.482 -0.1,0.424 -0.088,0.364 -0.074,0.301 -0.059,0.236 -0.043,0.168 -0.026,0.098" /></g></g><g
       clip-path="url(#clipPath874)"
       id="g870"
       transform="matrix(0.51077,0,0,0.51077,298.68417,489.83144)"><g
         transform="translate(80.8137,46.3554)"
         id="g876"><path
           inkscape:connector-curvature="0"
           id="path878"
           style="fill:none;stroke:#008000;stroke-width:0.398;stroke-linecap:butt;stroke-linejoin:miter;stroke-miterlimit:10;stroke-dasharray:none;stroke-opacity:1"
           d="m 0,0 0.034,0.017 0.098,0.052 0.162,0.085 0.22,0.118 0.277,0.15 0.331,0.182 0.381,0.213 0.43,0.244 0.474,0.273 0.516,0.302 0.555,0.331 0.592,0.358 0.625,0.386 0.656,0.413 0.683,0.438 0.707,0.464 0.73,0.488 0.748,0.512 0.764,0.536 0.777,0.559 0.788,0.58 0.794,0.602 0.8,0.623 0.8,0.644 0.799,0.662 0.795,0.682 0.788,0.7 0.777,0.718 0.764,0.735 0.751,0.751 0.735,0.768 0.723,0.783 0.708,0.798 0.696,0.812 0.682,0.827 0.67,0.841 0.657,0.854 0.646,0.866 0.633,0.88 0.623,0.891 0.611,0.902 0.6,0.913 0.59,0.924 0.58,0.934 0.57,0.944 0.56,0.953 0.551,0.961 0.542,0.97 0.533,0.977 0.525,0.985 0.517,0.991 0.509,0.998 0.501,1.004 0.495,1.009 0.487,1.014 0.481,1.019 0.475,1.023 0.469,1.027 0.464,1.029 0.459,1.031 0.456,1.033 0.454,1.033 0.452,1.032 0.452,1.031 0.452,1.029 0.453,1.026 0.455,1.023 0.458,1.018 0.462,1.012 0.467,1.007 0.472,0.999 0.479,0.991 0.486,0.983 0.495,0.973 0.504,0.963 0.514,0.952 0.525,0.94 0.537,0.927 0.55,0.913 0.563,0.9 0.578,0.883 0.594,0.868 0.61,0.851 0.627,0.833 0.646,0.815 0.665,0.796 0.684,0.775 0.702,0.756 0.721,0.736 0.739,0.716 0.756,0.696 0.772,0.676 0.788,0.657 0.803,0.636 0.818,0.617 0.832,0.597 0.845,0.576 0.859,0.557 0.87,0.537 0.883,0.518 0.893,0.497 0.904,0.477 0.914,0.458 0.923,0.437 0.931,0.418 0.94,0.397 0.948,0.378 0.954,0.358 0.961,0.337 0.966,0.318 0.972,0.298 0.976,0.278 0.98,0.258 0.983,0.238 0.987,0.218 0.988,0.2 0.991,0.183 0.992,0.168 0.993,0.155 0.994,0.144 0.995,0.135 0.995,0.127 0.994,0.121 0.994,0.117 0.993,0.115 0.991,0.114 0.989,0.116 0.988,0.119 0.985,0.124 0.981,0.131 0.979,0.139 0.975,0.15 0.971,0.162 0.966,0.176 0.962,0.192 0.956,0.209 0.951,0.229 0.945,0.25 0.938,0.273 0.932,0.299 0.925,0.324 0.917,0.353 0.91,0.384 0.901,0.414 0.892,0.445 0.884,0.475 0.874,0.504 0.863,0.533 0.853,0.56 0.842,0.587 0.83,0.614 0.819,0.639 0.806,0.664 0.793,0.688 0.779,0.711 0.766,0.735 0.751,0.756 0.737,0.777 0.721,0.798 0.705,0.818 0.69,0.837 0.672,0.856 0.655,0.873 0.638,0.89 0.619,0.907 0.601,0.922 0.582,0.937 0.562,0.951 0.543,0.965 0.522,0.977 0.5,0.989 0.48,1.001 0.459,1.01 0.441,1.021 0.423,1.029 0.408,1.036 0.394,1.044 0.382,1.049 0.371,1.054 0.362,1.058 0.355,1.061 0.348,1.063 0.345,1.065 0.341,1.065 0.341,1.064 0.341,1.062 0.343,1.06 0.347,1.057 0.352,1.052 0.359,1.048 0.368,1.041 0.378,1.034 0.389,1.026 0.403,1.017 0.418,1.007 0.434,0.997 0.452,0.985 0.473,0.972 0.493,0.959 0.517,0.944 0.54,0.929 0.564,0.914 0.586,0.898 0.608,0.881 0.63,0.865 0.651,0.848 0.67,0.831 0.69,0.814 0.708,0.795 0.727,0.777 0.744,0.759 0.76,0.74 0.776,0.72 0.792,0.701 0.807,0.681 0.82,0.66 0.834,0.64 0.846,0.62 0.858,0.597 0.87,0.577 0.88,0.554 0.89,0.532 0.9,0.509 0.908,0.487 0.916,0.463 0.923,0.439 0.93,0.416 0.936,0.391 0.941,0.367 0.946,0.342 0.951,0.32 0.955,0.298 0.96,0.276 0.964,0.257 0.967,0.239 0.972,0.221 0.975,0.204 0.979,0.188 0.982,0.174 0.984,0.161 0.988,0.148 0.99,0.137 0.993,0.126 0.995,0.118 0.997,0.109 0.999,0.102 1,0.097 1.002,0.091 1.004,0.087 1.004,0.085 1.006,0.082 1.006,0.082 1.006,0.083 1.007,0.083 1.007,0.086 1.007,0.09 1.007,0.094 1.006,0.1 1.003,0.104 0.997,0.108 0.989,0.112 0.978,0.115 0.965,0.117 0.95,0.118 0.932,0.12 0.912,0.12 0.889,0.12 0.864,0.119 0.836,0.118 0.806,0.115 0.774,0.113 0.738,0.11 0.701,0.106 0.662,0.101 0.619,0.096 0.574,0.09 0.527,0.084 0.477,0.077 0.426,0.07 0.371,0.061 0.313,0.052 0.255,0.043 0.192,0.032 0.128,0.022 0.062,0.011" /></g></g><g
       transform="matrix(0.51077,0,0,0.51077,338.88192,512.42893)"
       id="g882"><path
         inkscape:connector-curvature="0"
         id="path884"
         style="fill:none;stroke:#ff0000;stroke-width:0.398;stroke-linecap:butt;stroke-linejoin:miter;stroke-miterlimit:10;stroke-dasharray:none;stroke-opacity:1"
         d="M 0,0 4.227,4.227 M 0,4.227 4.227,0" /></g><g
       transform="matrix(0.51077,0,0,0.51077,442.07498,595.29819)"
       id="g888"><path
         inkscape:connector-curvature="0"
         id="path890"
         style="fill:none;stroke:#ff0000;stroke-width:0.398;stroke-linecap:butt;stroke-linejoin:miter;stroke-miterlimit:10;stroke-dasharray:none;stroke-opacity:1"
         d="M 0,0 4.227,4.227 M 0,4.227 4.227,0" /></g><g
       clip-path="url(#clipPath910)"
       id="g906"
       transform="matrix(0.84442,0,0,0.84442,437.44756,494.05694)"><g
         transform="translate(74.9704,87.5602)"
         id="g912"><path
           inkscape:connector-curvature="0"
           id="path914"
           style="fill:none;stroke:#ff0000;stroke-width:0.398;stroke-linecap:butt;stroke-linejoin:miter;stroke-miterlimit:10;stroke-dasharray:none;stroke-opacity:1"
           d="m 0,0 0.835,-0.028 0.832,-0.084 0.825,-0.14 0.816,-0.194 0.802,-0.249 0.786,-0.302 0.767,-0.354 0.744,-0.405 0.72,-0.454 0.691,-0.502 0.66,-0.546 0.627,-0.59 0.59,-0.631 0.553,-0.669 0.512,-0.705 0.47,-0.738 0.425,-0.768 0.379,-0.794 0.332,-0.819 0.283,-0.839 0.233,-0.857 0.182,-0.87 0.131,-0.881 0.079,-0.888 0.026,-0.892 -0.026,-0.892 -0.079,-0.888 -0.131,-0.881 -0.182,-0.87 -0.233,-0.857 -0.283,-0.839 -0.332,-0.819 -0.379,-0.794 -0.425,-0.768 -0.47,-0.738 -0.512,-0.705 -0.553,-0.669 -0.59,-0.631 -0.627,-0.589 -0.66,-0.547 -0.691,-0.502 -0.72,-0.454 L 5.663,-27.047 4.896,-27.401 4.11,-27.703 3.308,-27.952 2.492,-28.146 1.667,-28.286 0.835,-28.37 0,-28.398 l -0.835,0.028 -0.832,0.084 -0.825,0.14 -0.816,0.194 -0.802,0.249 -0.786,0.302 -0.767,0.354 -0.744,0.405 -0.72,0.454 -0.691,0.502 -0.66,0.547 -0.627,0.589 -0.59,0.631 -0.553,0.669 -0.512,0.705 -0.47,0.738 -0.425,0.768 -0.379,0.794 -0.332,0.819 -0.283,0.839 -0.233,0.857 -0.182,0.87 -0.131,0.881 -0.079,0.888 -0.026,0.892 0.026,0.892 0.079,0.888 0.131,0.881 0.182,0.87 0.233,0.857 0.283,0.839 0.332,0.819 0.379,0.794 0.425,0.768 0.47,0.738 0.512,0.705 0.553,0.669 0.59,0.631 0.627,0.59 0.66,0.546 0.691,0.502 0.72,0.454 0.744,0.405 0.767,0.354 0.786,0.302 0.802,0.249 0.816,0.194 0.825,0.14 0.832,0.084 L 0,0" /></g></g><g
       clip-path="url(#clipPath922)"
       id="g918"
       transform="matrix(0.84442,0,0,0.84442,437.44756,494.05694)"><g
         transform="translate(14.0118,63.8953)"
         id="g924"><path
           inkscape:connector-curvature="0"
           id="path926"
           style="fill:none;stroke:#ff0000;stroke-width:0.398;stroke-linecap:butt;stroke-linejoin:miter;stroke-miterlimit:10;stroke-dasharray:none;stroke-opacity:1"
           d="M 0,0 H 44.334 V 18.932 H 0 V 0" /></g></g><g
       clip-path="url(#clipPath934)"
       id="g930"
       transform="matrix(0.84442,0,0,0.84442,437.44756,494.05694)"><g
         transform="translate(91.5955,63.8953)"
         id="g936"><path
           inkscape:connector-curvature="0"
           id="path938"
           style="fill:none;stroke:#ff0000;stroke-width:0.398;stroke-linecap:butt;stroke-linejoin:miter;stroke-miterlimit:10;stroke-dasharray:none;stroke-opacity:1"
           d="M 0,0 H 44.334 V 18.932 H 0 V 0" /></g></g><g
       clip-path="url(#clipPath946)"
       id="g942"
       transform="matrix(0.84442,0,0,0.84442,437.44756,494.05694)"><g
         transform="translate(57.5411,39.4402)"
         id="g948"><path
           inkscape:connector-curvature="0"
           id="path950"
           style="fill:none;stroke:#008000;stroke-width:0.398;stroke-linecap:butt;stroke-linejoin:miter;stroke-miterlimit:10;stroke-dasharray:none;stroke-opacity:1"
           d="m 0,0 0.557,-0.019 0.554,-0.056 0.55,-0.093 0.544,-0.129 0.535,-0.166 0.524,-0.202 0.511,-0.236 0.497,-0.27 0.479,-0.303 0.461,-0.334 0.44,-0.364 0.418,-0.394 0.394,-0.42 0.368,-0.446 0.341,-0.47 0.313,-0.492 0.284,-0.512 0.253,-0.53 0.221,-0.545 0.189,-0.56 L 8.588,-7.112 8.71,-7.692 8.797,-8.28 8.849,-8.872 8.867,-9.466 8.849,-10.06 8.797,-10.652 8.71,-11.24 8.588,-11.82 8.433,-12.391 8.244,-12.951 8.023,-13.496 7.77,-14.026 7.486,-14.538 7.173,-15.03 6.832,-15.5 6.464,-15.946 6.07,-16.366 5.652,-16.76 5.212,-17.124 4.751,-17.458 4.272,-17.761 3.775,-18.031 3.264,-18.267 2.74,-18.469 2.205,-18.635 1.661,-18.764 1.111,-18.857 0.557,-18.913 0,-18.932 l -0.557,0.019 -0.554,0.056 -0.55,0.093 -0.544,0.129 -0.535,0.166 -0.524,0.202 -0.511,0.236 -0.497,0.27 -0.479,0.303 -0.461,0.334 -0.44,0.364 -0.418,0.394 -0.394,0.42 -0.368,0.446 -0.341,0.47 -0.313,0.492 -0.284,0.512 -0.253,0.53 -0.221,0.545 -0.189,0.56 -0.155,0.571 -0.122,0.58 -0.087,0.588 -0.052,0.592 -0.018,0.594 0.018,0.594 0.052,0.592 0.087,0.588 0.122,0.58 0.155,0.571 0.189,0.56 0.221,0.545 0.253,0.53 0.284,0.512 0.313,0.492 0.341,0.47 0.368,0.446 0.394,0.42 0.418,0.394 0.44,0.364 0.461,0.334 0.479,0.303 0.497,0.27 0.511,0.236 0.524,0.202 0.535,0.166 0.544,0.129 0.55,0.093 0.554,0.056 L 0,0" /></g></g><g
       clip-path="url(#clipPath958)"
       id="g954"
       transform="matrix(0.84442,0,0,0.84442,437.44756,494.05694)"><g
         transform="translate(57.5411,29.9742)"
         id="g960"><path
           inkscape:connector-curvature="0"
           id="path962"
           style="fill:none;stroke:#008000;stroke-width:0.398;stroke-linecap:butt;stroke-linejoin:miter;stroke-miterlimit:10;stroke-dasharray:none;stroke-opacity:1"
           d="m 0,0 1.679,0.317 1.69,0.316 1.7,0.316 1.71,0.315 1.718,0.314 1.724,0.312 1.73,0.311 1.733,0.31 1.737,0.307 1.738,0.306 1.739,0.304 1.739,0.302 1.739,0.303 1.738,0.303 1.739,0.306 1.738,0.308 1.737,0.312 1.736,0.317 1.736,0.324 1.734,0.33 1.733,0.338 1.732,0.343 1.732,0.345 1.732,0.345 1.732,0.342 1.733,0.336 1.734,0.327 1.736,0.316 1.738,0.301 1.741,0.284 1.744,0.266 1.744,0.255 1.743,0.257 1.739,0.266 1.734,0.286 1.725,0.317 1.716,0.358 1.703,0.408 1.688,0.469 1.671,0.54 1.652,0.619 1.628,0.699 1.598,0.779 1.564,0.858 1.524,0.936 1.479,1.015 1.429,1.091 1.373,1.169 1.313,1.244 1.247,1.321 1.177,1.394 1.102,1.463 1.024,1.528 0.941,1.586 0.857,1.639 0.767,1.687 0.674,1.728 0.578,1.765 0.478,1.796 0.374,1.822 0.267,1.841 0.162,1.856 0.06,1.865 -0.042,1.867 -0.139,1.865 -0.235,1.857 -0.329,1.843 -0.42,1.822 -0.509,1.798 -0.596,1.766 -0.679,1.73 -0.76,1.692 -0.836,1.65 -0.909,1.606 -0.977,1.561 -1.042,1.513 -1.103,1.463 -1.159,1.41 -1.212,1.356 -1.26,1.3 -1.305,1.241 -1.345,1.19 -1.38,1.145 -1.409,1.107 -1.433,1.075 -1.452,1.052 -1.465,1.036 -1.475,1.025 -1.477,1.023 -1.476,1.027 -1.465,1.033 -1.431,1.022 -1.367,0.987 -1.276,0.929 -1.156,0.85 -1.01,0.746 -0.833,0.621 -0.631,0.471 -0.399,0.3 -0.139,0.105" /></g></g><g
       clip-path="url(#clipPath970)"
       id="g966"
       transform="matrix(0.84442,0,0,0.84442,437.44756,494.05694)"><g
         transform="translate(58.5956,30.1736)"
         id="g972"><path
           inkscape:connector-curvature="0"
           id="path974"
           style="fill:none;stroke:#008000;stroke-width:0.398;stroke-linecap:butt;stroke-linejoin:miter;stroke-miterlimit:10;stroke-dasharray:2.989, 2.989;stroke-dashoffset:0;stroke-opacity:1"
           d="M 0,0 0.968,0.279 1.82,0.717 2.571,1.295 3.232,1.997 3.817,2.804 4.338,3.7 l 0.47,0.965 0.432,1.018 0.406,1.054 0.395,1.07 0.392,1.074 0.393,1.073 0.393,1.074 0.393,1.073 0.393,1.073 0.393,1.074 0.393,1.073 0.392,1.074 0.391,1.074 0.391,1.074 0.39,1.074 0.39,1.075 0.39,1.075 0.39,1.074 0.391,1.075 0.391,1.073 0.394,1.074 0.395,1.072 0.398,1.071 0.4,1.07 0.403,1.069 0.405,1.069 0.406,1.067 0.406,1.068 0.405,1.068 0.403,1.069 0.399,1.071 0.395,1.072 0.39,1.074 0.383,1.078 0.377,1.079 0.372,1.082 0.371,1.082 0.371,1.082 0.376,1.079 0.382,1.076 0.392,1.072 0.405,1.066 0.42,1.059 0.439,1.051 0.459,1.041 0.48,1.031 0.5,1.02 0.521,1.009 0.542,0.996 0.562,0.983 0.581,0.97 0.602,0.955 0.621,0.94 0.64,0.924 0.659,0.908 0.677,0.893 0.693,0.879 0.708,0.866 0.721,0.854 0.733,0.844 0.743,0.834 0.752,0.826 0.759,0.819 0.764,0.814 0.769,0.808 0.773,0.805 0.775,0.802 0.778,0.799 0.78,0.797 0.78,0.796 0.781,0.795 0.781,0.796 0.78,0.796 0.779,0.798 0.777,0.8 0.775,0.802 0.773,0.804 0.773,0.805 0.771,0.806 0.771,0.807 0.77,0.807 0.771,0.807 0.77,0.807 0.772,0.807 0.769,0.802 0.755,0.787 0.724,0.753 0.678,0.705 0.617,0.639 0.539,0.56 0.447,0.463 0.338,0.35 0.215,0.222 0.075,0.077" /></g></g><g
       clip-path="url(#clipPath982)"
       id="g978"
       transform="matrix(0.84442,0,0,0.84442,437.44756,494.05694)"><g
         transform="translate(74.9704,74.8403)"
         id="g984"><path
           inkscape:connector-curvature="0"
           id="path986"
           style="fill:none;stroke:#0000ff;stroke-width:0.398;stroke-linecap:butt;stroke-linejoin:miter;stroke-miterlimit:10;stroke-dasharray:2.989, 2.989;stroke-dashoffset:0;stroke-opacity:1"
           d="m 0,0 v 1.441 1.44 1.441 1.44 1.441 1.441 1.44 1.441 1.44 1.441 1.441 1.44 1.441 1.44 1.441 1.441 1.44 1.441 1.44 1.441 1.44 1.441 1.441 1.44 1.441 1.44 1.441 1.441 1.44 1.441 1.44 1.441 1.441 1.44 1.441 1.44 1.441 1.441 1.44 1.441" /></g></g><g
       transform="matrix(0.84442,0,0,0.84442,531.72604,594.18632)"
       id="g992"><path
         inkscape:connector-curvature="0"
         id="path994"
         style="fill:none;stroke:#ff0000;stroke-width:0.398;stroke-linecap:butt;stroke-linejoin:miter;stroke-miterlimit:10;stroke-dasharray:none;stroke-opacity:1"
         d="M 0,0 4.227,4.227 M 0,4.227 4.227,0" /></g><g
       transform="matrix(0.84442,0,0,0.84442,466.2129,514.25378)"
       id="g998"><path
         inkscape:connector-curvature="0"
         id="path1000"
         style="fill:none;stroke:#ff0000;stroke-width:0.398;stroke-linecap:butt;stroke-linejoin:miter;stroke-miterlimit:10;stroke-dasharray:none;stroke-opacity:1"
         d="M 0,0 4.227,4.227 M 0,4.227 4.227,0" /></g><g
       transform="matrix(0.84442,0,0,0.84442,467.45124,515.45226)"
       id="g1004"><path
         inkscape:connector-curvature="0"
         id="path1006"
         style="fill:none;stroke:#000000;stroke-width:0.398;stroke-linecap:butt;stroke-linejoin:miter;stroke-miterlimit:10;stroke-dasharray:none;stroke-opacity:1"
         d="M 0,0 1.409,1.409 M 0,1.409 1.409,0" /></g><g
       transform="matrix(0.84442,0,0,0.84442,467.59124,515.47743)"
       id="g1010"><path
         inkscape:connector-curvature="0"
         id="path1012"
         style="fill:none;stroke:#000000;stroke-width:0.398;stroke-linecap:butt;stroke-linejoin:miter;stroke-miterlimit:10;stroke-dasharray:none;stroke-opacity:1"
         d="M 0,0 1.409,1.409 M 0,1.409 1.409,0" /></g><g
       transform="matrix(0.84442,0,0,0.84442,467.81349,515.51754)"
       id="g1016"><path
         inkscape:connector-curvature="0"
         id="path1018"
         style="fill:none;stroke:#000000;stroke-width:0.398;stroke-linecap:butt;stroke-linejoin:miter;stroke-miterlimit:10;stroke-dasharray:none;stroke-opacity:1"
         d="M 0,0 1.409,1.409 M 0,1.409 1.409,0" /></g><g
       transform="matrix(0.84442,0,0,0.84442,468.10963,515.5709)"
       id="g1022"><path
         inkscape:connector-curvature="0"
         id="path1024"
         style="fill:none;stroke:#000000;stroke-width:0.398;stroke-linecap:butt;stroke-linejoin:miter;stroke-miterlimit:10;stroke-dasharray:none;stroke-opacity:1"
         d="M 0,0 1.409,1.409 M 0,1.409 1.409,0" /></g><g
       transform="matrix(0.84442,0,0,0.84442,468.47206,515.63626)"
       id="g1028"><path
         inkscape:connector-curvature="0"
         id="path1030"
         style="fill:none;stroke:#000000;stroke-width:0.398;stroke-linecap:butt;stroke-linejoin:miter;stroke-miterlimit:10;stroke-dasharray:none;stroke-opacity:1"
         d="M 0,0 1.409,1.409 M 0,1.409 1.409,0" /></g><g
       transform="matrix(0.84442,0,0,0.84442,468.89418,515.71243)"
       id="g1034"><path
         inkscape:connector-curvature="0"
         id="path1036"
         style="fill:none;stroke:#000000;stroke-width:0.398;stroke-linecap:butt;stroke-linejoin:miter;stroke-miterlimit:10;stroke-dasharray:none;stroke-opacity:1"
         d="M 0,0 1.409,1.409 M 0,1.409 1.409,0" /></g><g
       transform="matrix(0.84442,0,0,0.84442,469.36976,515.79831)"
       id="g1040"><path
         inkscape:connector-curvature="0"
         id="path1042"
         style="fill:none;stroke:#000000;stroke-width:0.398;stroke-linecap:butt;stroke-linejoin:miter;stroke-miterlimit:10;stroke-dasharray:none;stroke-opacity:1"
         d="M 0,0 1.409,1.409 M 0,1.409 1.409,0" /></g><g
       transform="matrix(0.84442,0,0,0.84442,469.89339,515.89288)"
       id="g1046"><path
         inkscape:connector-curvature="0"
         id="path1048"
         style="fill:none;stroke:#000000;stroke-width:0.398;stroke-linecap:butt;stroke-linejoin:miter;stroke-miterlimit:10;stroke-dasharray:none;stroke-opacity:1"
         d="M 0,0 1.409,1.409 M 0,1.409 1.409,0" /></g><g
       transform="matrix(0.84442,0,0,0.84442,470.46016,515.99548)"
       id="g1052"><path
         inkscape:connector-curvature="0"
         id="path1054"
         style="fill:none;stroke:#000000;stroke-width:0.398;stroke-linecap:butt;stroke-linejoin:miter;stroke-miterlimit:10;stroke-dasharray:none;stroke-opacity:1"
         d="M 0,0 1.409,1.409 M 0,1.409 1.409,0" /></g><g
       transform="matrix(0.84442,0,0,0.84442,471.06544,516.105)"
       id="g1058"><path
         inkscape:connector-curvature="0"
         id="path1060"
         style="fill:none;stroke:#000000;stroke-width:0.398;stroke-linecap:butt;stroke-linejoin:miter;stroke-miterlimit:10;stroke-dasharray:none;stroke-opacity:1"
         d="M 0,0 1.409,1.409 M 0,1.409 1.409,0" /></g><g
       transform="matrix(0.84442,0,0,0.84442,471.70534,516.22102)"
       id="g1064"><path
         inkscape:connector-curvature="0"
         id="path1066"
         style="fill:none;stroke:#000000;stroke-width:0.398;stroke-linecap:butt;stroke-linejoin:miter;stroke-miterlimit:10;stroke-dasharray:none;stroke-opacity:1"
         d="M 0,0 1.409,1.409 M 0,1.409 1.409,0" /></g><g
       transform="matrix(0.84442,0,0,0.84442,472.37623,516.34287)"
       id="g1070"><path
         inkscape:connector-curvature="0"
         id="path1072"
         style="fill:none;stroke:#000000;stroke-width:0.398;stroke-linecap:butt;stroke-linejoin:miter;stroke-miterlimit:10;stroke-dasharray:none;stroke-opacity:1"
         d="M 0,0 1.409,1.409 M 0,1.409 1.409,0" /></g><g
       transform="matrix(0.84442,0,0,0.84442,473.07491,516.46996)"
       id="g1076"><path
         inkscape:connector-curvature="0"
         id="path1078"
         style="fill:none;stroke:#000000;stroke-width:0.398;stroke-linecap:butt;stroke-linejoin:miter;stroke-miterlimit:10;stroke-dasharray:none;stroke-opacity:1"
         d="M 0,0 1.409,1.409 M 0,1.409 1.409,0" /></g><g
       transform="matrix(0.84442,0,0,0.84442,473.79824,516.60169)"
       id="g1082"><path
         inkscape:connector-curvature="0"
         id="path1084"
         style="fill:none;stroke:#000000;stroke-width:0.398;stroke-linecap:butt;stroke-linejoin:miter;stroke-miterlimit:10;stroke-dasharray:none;stroke-opacity:1"
         d="M 0,0 1.409,1.409 M 0,1.409 1.409,0" /></g><g
       transform="matrix(0.84442,0,0,0.84442,474.54386,516.73781)"
       id="g1088"><path
         inkscape:connector-curvature="0"
         id="path1090"
         style="fill:none;stroke:#000000;stroke-width:0.398;stroke-linecap:butt;stroke-linejoin:miter;stroke-miterlimit:10;stroke-dasharray:none;stroke-opacity:1"
         d="M 0,0 1.409,1.409 M 0,1.409 1.409,0" /></g><g
       transform="matrix(0.84442,0,0,0.84442,475.30916,516.87781)"
       id="g1094"><path
         inkscape:connector-curvature="0"
         id="path1096"
         style="fill:none;stroke:#000000;stroke-width:0.398;stroke-linecap:butt;stroke-linejoin:miter;stroke-miterlimit:10;stroke-dasharray:none;stroke-opacity:1"
         d="M 0,0 1.409,1.409 M 0,1.409 1.409,0" /></g><g
       transform="matrix(0.84442,0,0,0.84442,476.09219,517.02145)"
       id="g1100"><path
         inkscape:connector-curvature="0"
         id="path1102"
         style="fill:none;stroke:#000000;stroke-width:0.398;stroke-linecap:butt;stroke-linejoin:miter;stroke-miterlimit:10;stroke-dasharray:none;stroke-opacity:1"
         d="M 0,0 1.409,1.409 M 0,1.409 1.409,0" /></g><g
       transform="matrix(0.84442,0,0,0.84442,476.89092,517.16838)"
       id="g1106"><path
         inkscape:connector-curvature="0"
         id="path1108"
         style="fill:none;stroke:#000000;stroke-width:0.398;stroke-linecap:butt;stroke-linejoin:miter;stroke-miterlimit:10;stroke-dasharray:none;stroke-opacity:1"
         d="M 0,0 1.409,1.409 M 0,1.409 1.409,0" /></g><g
       transform="matrix(0.84442,0,0,0.84442,477.70368,517.31835)"
       id="g1112"><path
         inkscape:connector-curvature="0"
         id="path1114"
         style="fill:none;stroke:#000000;stroke-width:0.398;stroke-linecap:butt;stroke-linejoin:miter;stroke-miterlimit:10;stroke-dasharray:none;stroke-opacity:1"
         d="M 0,0 1.409,1.409 M 0,1.409 1.409,0" /></g><g
       transform="matrix(0.84442,0,0,0.84442,478.52893,517.4711)"
       id="g1118"><path
         inkscape:connector-curvature="0"
         id="path1120"
         style="fill:none;stroke:#000000;stroke-width:0.398;stroke-linecap:butt;stroke-linejoin:miter;stroke-miterlimit:10;stroke-dasharray:none;stroke-opacity:1"
         d="M 0,0 1.409,1.409 M 0,1.409 1.409,0" /></g><g
       transform="matrix(0.84442,0,0,0.84442,479.36533,517.62656)"
       id="g1124"><path
         inkscape:connector-curvature="0"
         id="path1126"
         style="fill:none;stroke:#000000;stroke-width:0.398;stroke-linecap:butt;stroke-linejoin:miter;stroke-miterlimit:10;stroke-dasharray:none;stroke-opacity:1"
         d="M 0,0 1.409,1.409 M 0,1.409 1.409,0" /></g><g
       transform="matrix(0.84442,0,0,0.84442,480.21152,517.78438)"
       id="g1130"><path
         inkscape:connector-curvature="0"
         id="path1132"
         style="fill:none;stroke:#000000;stroke-width:0.398;stroke-linecap:butt;stroke-linejoin:miter;stroke-miterlimit:10;stroke-dasharray:none;stroke-opacity:1"
         d="M 0,0 1.409,1.409 M 0,1.409 1.409,0" /></g><g
       transform="matrix(0.84442,0,0,0.84442,481.0665,517.9444)"
       id="g1136"><path
         inkscape:connector-curvature="0"
         id="path1138"
         style="fill:none;stroke:#000000;stroke-width:0.398;stroke-linecap:butt;stroke-linejoin:miter;stroke-miterlimit:10;stroke-dasharray:none;stroke-opacity:1"
         d="M 0,0 1.409,1.409 M 0,1.409 1.409,0" /></g><g
       transform="matrix(0.84442,0,0,0.84442,481.92924,518.10661)"
       id="g1142"><path
         inkscape:connector-curvature="0"
         id="path1144"
         style="fill:none;stroke:#000000;stroke-width:0.398;stroke-linecap:butt;stroke-linejoin:miter;stroke-miterlimit:10;stroke-dasharray:none;stroke-opacity:1"
         d="M 0,0 1.409,1.409 M 0,1.409 1.409,0" /></g><g
       transform="matrix(0.84442,0,0,0.84442,482.79882,518.27077)"
       id="g1148"><path
         inkscape:connector-curvature="0"
         id="path1150"
         style="fill:none;stroke:#000000;stroke-width:0.398;stroke-linecap:butt;stroke-linejoin:miter;stroke-miterlimit:10;stroke-dasharray:none;stroke-opacity:1"
         d="M 0,0 1.409,1.409 M 0,1.409 1.409,0" /></g><g
       transform="matrix(0.84442,0,0,0.84442,483.67449,518.43695)"
       id="g1154"><path
         inkscape:connector-curvature="0"
         id="path1156"
         style="fill:none;stroke:#000000;stroke-width:0.398;stroke-linecap:butt;stroke-linejoin:miter;stroke-miterlimit:10;stroke-dasharray:none;stroke-opacity:1"
         d="M 0,0 1.409,1.409 M 0,1.409 1.409,0" /></g><g
       transform="matrix(0.84442,0,0,0.84442,484.55556,518.60457)"
       id="g1160"><path
         inkscape:connector-curvature="0"
         id="path1162"
         style="fill:none;stroke:#000000;stroke-width:0.398;stroke-linecap:butt;stroke-linejoin:miter;stroke-miterlimit:10;stroke-dasharray:none;stroke-opacity:1"
         d="M 0,0 1.409,1.409 M 0,1.409 1.409,0" /></g><g
       transform="matrix(0.84442,0,0,0.84442,485.44161,518.77286)"
       id="g1166"><path
         inkscape:connector-curvature="0"
         id="path1168"
         style="fill:none;stroke:#000000;stroke-width:0.398;stroke-linecap:butt;stroke-linejoin:miter;stroke-miterlimit:10;stroke-dasharray:none;stroke-opacity:1"
         d="M 0,0 1.409,1.409 M 0,1.409 1.409,0" /></g><text
       xml:space="preserve"
       style="font-style:normal;font-weight:normal;font-size:10px;line-height:1.25;font-family:sans-serif;letter-spacing:0px;word-spacing:0px;fill:#000000;fill-opacity:1;stroke:none;stroke-width:0.75"
       x="374.49887"
       y="-618.2135"
       id="text12410"
       transform="scale(1,-1)"><tspan
         sodipodi:role="line"
         id="tspan12408"
         x="374.49887"
         y="-618.2135"
         style="stroke-width:0.75">(a)</tspan></text>
<text
       xml:space="preserve"
       style="font-style:normal;font-weight:normal;font-size:10px;line-height:1.25;font-family:sans-serif;letter-spacing:0px;word-spacing:0px;fill:#000000;fill-opacity:1;stroke:none;stroke-width:0.75"
       x="500.0834"
       y="-618.2135"
       id="text12410-7"
       transform="scale(1,-1)"><tspan
         sodipodi:role="line"
         id="tspan12408-1"
         x="500.0834"
         y="-618.2135"
         style="stroke-width:0.75">(b)</tspan></text>
<text
       xml:space="preserve"
       style="font-style:normal;font-weight:normal;font-size:10px;line-height:1.25;font-family:sans-serif;letter-spacing:0px;word-spacing:0px;fill:#000000;fill-opacity:1;stroke:none;stroke-width:0.75"
       x="374.89926"
       y="-505.35324"
       id="text12410-6"
       transform="scale(1,-1)"><tspan
         sodipodi:role="line"
         id="tspan12408-11"
         x="374.89926"
         y="-505.35324"
         style="stroke-width:0.75">(c)</tspan></text>
<text
       xml:space="preserve"
       style="font-style:normal;font-weight:normal;font-size:10px;line-height:1.25;font-family:sans-serif;letter-spacing:0px;word-spacing:0px;fill:#000000;fill-opacity:1;stroke:none;stroke-width:0.75"
       x="500.0834"
       y="-505.35324"
       id="text12410-2"
       transform="scale(1,-1)"><tspan
         sodipodi:role="line"
         id="tspan12408-7"
         x="500.0834"
         y="-505.35324"
         style="stroke-width:0.75">(d)</tspan></text>
</g></svg>